<svg width="272" height="201" viewBox="0 0 272 201" fill="none" xmlns="http://www.w3.org/2000/svg">
<mask id="path-1-outside-1_43_9853" maskUnits="userSpaceOnUse" x="1" y="158" width="271" height="33" fill="black">
<rect fill="white" x="1" y="158" width="271" height="33"/>
<path d="M16.8431 189.64C14.0698 189.64 11.5498 188.987 9.28313 187.68C7.01646 186.373 5.22979 184.587 3.92313 182.32C2.64313 180.027 2.00313 177.48 2.00313 174.68C2.00313 171.88 2.64313 169.347 3.92313 167.08C5.22979 164.787 7.01646 162.987 9.28313 161.68C11.5498 160.373 14.0698 159.72 16.8431 159.72C18.9765 159.72 20.9231 160.133 22.6831 160.96C24.4698 161.76 26.0165 162.907 27.3231 164.4L24.8831 166.76C23.7898 165.453 22.5898 164.493 21.2831 163.88C20.0031 163.267 18.5231 162.96 16.8431 162.96C14.7631 162.96 12.8565 163.453 11.1231 164.44C9.38979 165.4 8.00313 166.773 6.96313 168.56C5.94979 170.32 5.44313 172.36 5.44313 174.68C5.44313 177 5.94979 179.053 6.96313 180.84C8.00313 182.6 9.38979 183.973 11.1231 184.96C12.8565 185.92 14.7631 186.4 16.8431 186.4C20.3098 186.4 23.2565 184.973 25.6831 182.12L28.1631 184.52C26.8298 186.093 25.1898 187.347 23.2431 188.28C21.2965 189.187 19.1631 189.64 16.8431 189.64ZM51.0516 160.36H60.7316C62.3049 160.36 63.7716 160.72 65.1316 161.44C66.4916 162.16 67.5716 163.173 68.3716 164.48C69.1982 165.76 69.6116 167.213 69.6116 168.84C69.6116 170.173 69.3049 171.413 68.6916 172.56C68.1049 173.707 67.2782 174.667 66.2116 175.44C65.1716 176.213 64.0116 176.733 62.7316 177L62.6516 177.12L70.7316 188.84V189H66.7316L58.9316 177.32H54.4116V189H51.0516V160.36ZM60.5316 174.16C61.5182 174.16 62.4382 173.933 63.2916 173.48C64.1716 173.027 64.8649 172.4 65.3716 171.6C65.9049 170.773 66.1716 169.853 66.1716 168.84C66.1716 167.96 65.9449 167.12 65.4916 166.32C65.0382 165.52 64.3982 164.867 63.5716 164.36C62.7716 163.853 61.8382 163.6 60.7716 163.6H54.4116V174.16H60.5316ZM98.7878 175.76L89.1078 160.36H93.0678L100.388 172.36H100.548L107.748 160.36H111.708L102.188 175.76V189H98.7878V175.76ZM140.911 189.64C138.671 189.64 136.618 188.96 134.751 187.6C132.884 186.24 131.604 184.333 130.911 181.88L134.151 180.56C134.604 182.267 135.444 183.667 136.671 184.76C137.898 185.853 139.338 186.4 140.991 186.4C142.644 186.4 144.044 185.96 145.191 185.08C146.338 184.173 146.911 182.947 146.911 181.4C146.911 180.067 146.418 178.973 145.431 178.12C144.471 177.24 142.884 176.427 140.671 175.68L138.871 175.04C136.844 174.32 135.191 173.373 133.911 172.2C132.631 171.027 131.991 169.4 131.991 167.32C131.991 165.96 132.364 164.707 133.111 163.56C133.858 162.387 134.898 161.453 136.231 160.76C137.564 160.067 139.058 159.72 140.711 159.72C142.364 159.72 143.804 160.027 145.031 160.64C146.258 161.253 147.231 162 147.951 162.88C148.698 163.76 149.218 164.627 149.511 165.48L146.311 166.84C146.044 165.853 145.431 164.96 144.471 164.16C143.538 163.36 142.298 162.96 140.751 162.96C139.284 162.96 138.031 163.373 136.991 164.2C135.951 165.027 135.431 166.067 135.431 167.32C135.431 168.44 135.871 169.36 136.751 170.08C137.631 170.773 138.964 171.427 140.751 172.04L142.631 172.68C145.058 173.56 146.951 174.667 148.311 176C149.671 177.307 150.351 179.093 150.351 181.36C150.351 183.2 149.871 184.747 148.911 186C147.978 187.253 146.791 188.173 145.351 188.76C143.911 189.347 142.431 189.64 140.911 189.64ZM178.822 163.6H170.782V160.36H190.222V163.6H182.222V189H178.822V163.6ZM218.128 160.36H221.968L232.848 189H229.128L226.248 181.12H213.888L211.008 189H207.288L218.128 160.36ZM225.088 177.92L221.288 167.6L220.128 164.52H219.968L218.848 167.6L215.048 177.92H225.088ZM254.645 160.36H258.005V185.76H270.565V189H254.645V160.36Z"/>
</mask>
<path d="M16.8431 189.64C14.0698 189.64 11.5498 188.987 9.28313 187.68C7.01646 186.373 5.22979 184.587 3.92313 182.32C2.64313 180.027 2.00313 177.48 2.00313 174.68C2.00313 171.88 2.64313 169.347 3.92313 167.08C5.22979 164.787 7.01646 162.987 9.28313 161.68C11.5498 160.373 14.0698 159.72 16.8431 159.72C18.9765 159.72 20.9231 160.133 22.6831 160.96C24.4698 161.76 26.0165 162.907 27.3231 164.4L24.8831 166.76C23.7898 165.453 22.5898 164.493 21.2831 163.88C20.0031 163.267 18.5231 162.96 16.8431 162.96C14.7631 162.96 12.8565 163.453 11.1231 164.44C9.38979 165.4 8.00313 166.773 6.96313 168.56C5.94979 170.32 5.44313 172.36 5.44313 174.68C5.44313 177 5.94979 179.053 6.96313 180.84C8.00313 182.6 9.38979 183.973 11.1231 184.96C12.8565 185.92 14.7631 186.4 16.8431 186.4C20.3098 186.4 23.2565 184.973 25.6831 182.12L28.1631 184.52C26.8298 186.093 25.1898 187.347 23.2431 188.28C21.2965 189.187 19.1631 189.64 16.8431 189.64ZM51.0516 160.36H60.7316C62.3049 160.36 63.7716 160.72 65.1316 161.44C66.4916 162.16 67.5716 163.173 68.3716 164.48C69.1982 165.76 69.6116 167.213 69.6116 168.84C69.6116 170.173 69.3049 171.413 68.6916 172.56C68.1049 173.707 67.2782 174.667 66.2116 175.44C65.1716 176.213 64.0116 176.733 62.7316 177L62.6516 177.12L70.7316 188.84V189H66.7316L58.9316 177.32H54.4116V189H51.0516V160.36ZM60.5316 174.16C61.5182 174.16 62.4382 173.933 63.2916 173.48C64.1716 173.027 64.8649 172.4 65.3716 171.6C65.9049 170.773 66.1716 169.853 66.1716 168.84C66.1716 167.96 65.9449 167.12 65.4916 166.32C65.0382 165.52 64.3982 164.867 63.5716 164.36C62.7716 163.853 61.8382 163.6 60.7716 163.6H54.4116V174.16H60.5316ZM98.7878 175.76L89.1078 160.36H93.0678L100.388 172.36H100.548L107.748 160.36H111.708L102.188 175.76V189H98.7878V175.76ZM140.911 189.64C138.671 189.64 136.618 188.96 134.751 187.6C132.884 186.24 131.604 184.333 130.911 181.88L134.151 180.56C134.604 182.267 135.444 183.667 136.671 184.76C137.898 185.853 139.338 186.4 140.991 186.4C142.644 186.4 144.044 185.96 145.191 185.08C146.338 184.173 146.911 182.947 146.911 181.4C146.911 180.067 146.418 178.973 145.431 178.12C144.471 177.24 142.884 176.427 140.671 175.68L138.871 175.04C136.844 174.32 135.191 173.373 133.911 172.2C132.631 171.027 131.991 169.4 131.991 167.32C131.991 165.96 132.364 164.707 133.111 163.56C133.858 162.387 134.898 161.453 136.231 160.76C137.564 160.067 139.058 159.72 140.711 159.72C142.364 159.72 143.804 160.027 145.031 160.64C146.258 161.253 147.231 162 147.951 162.88C148.698 163.76 149.218 164.627 149.511 165.48L146.311 166.84C146.044 165.853 145.431 164.96 144.471 164.16C143.538 163.36 142.298 162.96 140.751 162.96C139.284 162.96 138.031 163.373 136.991 164.2C135.951 165.027 135.431 166.067 135.431 167.32C135.431 168.44 135.871 169.36 136.751 170.08C137.631 170.773 138.964 171.427 140.751 172.04L142.631 172.68C145.058 173.56 146.951 174.667 148.311 176C149.671 177.307 150.351 179.093 150.351 181.36C150.351 183.2 149.871 184.747 148.911 186C147.978 187.253 146.791 188.173 145.351 188.76C143.911 189.347 142.431 189.64 140.911 189.64ZM178.822 163.6H170.782V160.36H190.222V163.6H182.222V189H178.822V163.6ZM218.128 160.36H221.968L232.848 189H229.128L226.248 181.12H213.888L211.008 189H207.288L218.128 160.36ZM225.088 177.92L221.288 167.6L220.128 164.52H219.968L218.848 167.6L215.048 177.92H225.088ZM254.645 160.36H258.005V185.76H270.565V189H254.645V160.36Z" fill="black"/>
<path d="M9.28313 187.68L9.78255 186.814L9.28313 187.68ZM3.92313 182.32L3.04984 182.807L3.05677 182.819L3.92313 182.32ZM3.92313 167.08L3.05425 166.585L3.05237 166.588L3.92313 167.08ZM9.28313 161.68L9.78255 162.546L9.28313 161.68ZM22.6831 160.96L22.258 161.865L22.2662 161.869L22.2745 161.873L22.6831 160.96ZM27.3231 164.4L28.0184 165.119L28.7021 164.457L28.0757 163.741L27.3231 164.4ZM24.8831 166.76L24.1162 167.402L24.8059 168.226L25.5784 167.479L24.8831 166.76ZM21.2831 163.88L20.851 164.782L20.8582 164.785L21.2831 163.88ZM11.1231 164.44L11.6077 165.315L11.6178 165.309L11.1231 164.44ZM6.96313 168.56L6.09887 168.057L6.0965 168.061L6.96313 168.56ZM6.96313 180.84L6.09329 181.333L6.09768 181.341L6.1022 181.349L6.96313 180.84ZM11.1231 184.96L10.6284 185.829L10.6386 185.835L11.1231 184.96ZM25.6831 182.12L26.3785 181.401L25.6122 180.66L24.9214 181.472L25.6831 182.12ZM28.1631 184.52L28.926 185.167L29.5312 184.452L28.8585 183.801L28.1631 184.52ZM23.2431 188.28L23.6654 189.187L23.6755 189.182L23.2431 188.28ZM16.8431 188.64C14.2342 188.64 11.8882 188.027 9.78255 186.814L8.7837 188.546C11.2114 189.946 13.9054 190.64 16.8431 190.64V188.64ZM9.78255 186.814C7.66835 185.595 6.00826 183.935 4.78948 181.821L3.05677 182.819C4.45133 185.239 6.36457 187.152 8.7837 188.546L9.78255 186.814ZM4.79632 181.833C3.60497 179.698 3.00313 177.321 3.00313 174.68H1.00313C1.00313 177.639 1.68128 180.355 3.04993 182.807L4.79632 181.833ZM3.00313 174.68C3.00313 172.039 3.60498 169.677 4.79388 167.572L3.05237 166.588C1.68127 169.016 1.00313 171.721 1.00313 174.68H3.00313ZM4.79199 167.575C6.01151 165.435 7.67126 163.763 9.78255 162.546L8.7837 160.814C6.36166 162.21 4.44808 164.139 3.05426 166.585L4.79199 167.575ZM9.78255 162.546C11.8882 161.333 14.2342 160.72 16.8431 160.72V158.72C13.9054 158.72 11.2114 159.414 8.7837 160.814L9.78255 162.546ZM16.8431 160.72C18.8439 160.72 20.6435 161.107 22.258 161.865L23.1083 160.055C21.2028 159.16 19.109 158.72 16.8431 158.72V160.72ZM22.2745 161.873C23.9277 162.613 25.3575 163.672 26.5705 165.059L28.0757 163.741C26.6754 162.141 25.0119 160.907 23.0918 160.047L22.2745 161.873ZM26.6279 163.681L24.1879 166.041L25.5784 167.479L28.0184 165.119L26.6279 163.681ZM25.6501 166.118C24.48 164.72 23.1682 163.66 21.708 162.975L20.8582 164.785C22.0114 165.327 23.0996 166.187 24.1162 167.402L25.6501 166.118ZM21.7152 162.978C20.2778 162.289 18.6455 161.96 16.8431 161.96V163.96C18.4008 163.96 19.7285 164.244 20.851 164.782L21.7152 162.978ZM16.8431 161.96C14.5974 161.96 12.5191 162.495 10.6284 163.571L11.6178 165.309C13.1938 164.412 14.9288 163.96 16.8431 163.96V161.96ZM10.6386 163.565C8.7405 164.616 7.22551 166.121 6.09888 168.057L7.82737 169.063C8.78074 167.425 10.0391 166.184 11.6076 165.315L10.6386 163.565ZM6.0965 168.061C4.98396 169.993 4.44313 172.21 4.44313 174.68H6.44313C6.44313 172.51 6.91562 170.647 7.82975 169.059L6.0965 168.061ZM4.44313 174.68C4.44313 177.15 4.98406 179.378 6.09329 181.333L7.83296 180.347C6.91553 178.729 6.44313 176.85 6.44313 174.68H4.44313ZM6.1022 181.349C7.22849 183.255 8.73981 184.754 10.6284 185.829L11.6178 184.091C10.0398 183.193 8.77776 181.945 7.82405 180.331L6.1022 181.349ZM10.6386 185.835C12.5277 186.881 14.6024 187.4 16.8431 187.4V185.4C14.9239 185.4 13.1852 184.959 11.6076 184.085L10.6386 185.835ZM16.8431 187.4C20.6288 187.4 23.8456 185.824 26.4449 182.768L24.9214 181.472C22.6673 184.122 19.9908 185.4 16.8431 185.4V187.4ZM24.9877 182.839L27.4677 185.239L28.8585 183.801L26.3785 181.401L24.9877 182.839ZM27.4002 183.873C26.1622 185.334 24.6366 186.503 22.8108 187.378L23.6755 189.182C25.743 188.19 27.4974 186.852 28.926 185.167L27.4002 183.873ZM22.8209 187.374C21.0169 188.214 19.0292 188.64 16.8431 188.64V190.64C19.2971 190.64 21.576 190.16 23.6653 189.187L22.8209 187.374ZM51.0516 160.36V159.36H50.0516V160.36H51.0516ZM65.1316 161.44L64.6637 162.324L65.1316 161.44ZM68.3716 164.48L67.5187 165.002L67.525 165.012L67.5315 165.023L68.3716 164.48ZM68.6916 172.56L67.8098 172.088L67.8055 172.096L67.8013 172.105L68.6916 172.56ZM66.2116 175.44L65.6245 174.63L65.6149 174.638L66.2116 175.44ZM62.7316 177L62.5276 176.021L62.1267 176.105L61.8995 176.445L62.7316 177ZM62.6516 177.12L61.8195 176.565L61.4434 177.129L61.8283 177.688L62.6516 177.12ZM70.7316 188.84H71.7316V188.529L71.5549 188.272L70.7316 188.84ZM70.7316 189V190H71.7316V189H70.7316ZM66.7316 189L65.8999 189.555L66.1969 190H66.7316V189ZM58.9316 177.32L59.7632 176.765L59.4662 176.32H58.9316V177.32ZM54.4116 177.32V176.32H53.4116V177.32H54.4116ZM54.4116 189V190H55.4116V189H54.4116ZM51.0516 189H50.0516V190H51.0516V189ZM63.2916 173.48L62.8336 172.591L62.8224 172.597L63.2916 173.48ZM65.3716 171.6L64.5312 171.058L64.5267 171.065L65.3716 171.6ZM65.4916 166.32L66.3616 165.827L65.4916 166.32ZM63.5716 164.36L63.0365 165.205L63.0427 165.209L63.049 165.213L63.5716 164.36ZM54.4116 163.6V162.6H53.4116V163.6H54.4116ZM54.4116 174.16H53.4116V175.16H54.4116V174.16ZM51.0516 161.36H60.7316V159.36H51.0516V161.36ZM60.7316 161.36C62.1456 161.36 63.4512 161.682 64.6637 162.324L65.5994 160.556C64.092 159.758 62.4642 159.36 60.7316 159.36V161.36ZM64.6637 162.324C65.866 162.96 66.8127 163.849 67.5187 165.002L69.2244 163.958C68.3304 162.498 67.1171 161.36 65.5994 160.556L64.6637 162.324ZM67.5315 165.023C68.2466 166.13 68.6116 167.392 68.6116 168.84H70.6116C70.6116 167.034 70.1498 165.39 69.2116 163.937L67.5315 165.023ZM68.6116 168.84C68.6116 170.013 68.3435 171.091 67.8098 172.088L69.5733 173.032C70.2663 171.736 70.6116 170.334 70.6116 168.84H68.6116ZM67.8013 172.105C67.2881 173.108 66.5667 173.947 65.6246 174.63L66.7985 176.25C67.9898 175.386 68.9217 174.306 69.5818 173.015L67.8013 172.105ZM65.6149 174.638C64.6925 175.323 63.6667 175.784 62.5276 176.021L62.9355 177.979C64.3564 177.683 65.6507 177.103 66.8083 176.242L65.6149 174.638ZM61.8995 176.445L61.8195 176.565L63.4836 177.675L63.5636 177.555L61.8995 176.445ZM61.8283 177.688L69.9083 189.408L71.5549 188.272L63.4749 176.552L61.8283 177.688ZM69.7316 188.84V189H71.7316V188.84H69.7316ZM70.7316 188H66.7316V190H70.7316V188ZM67.5632 188.445L59.7632 176.765L58.1 177.875L65.8999 189.555L67.5632 188.445ZM58.9316 176.32H54.4116V178.32H58.9316V176.32ZM53.4116 177.32V189H55.4116V177.32H53.4116ZM54.4116 188H51.0516V190H54.4116V188ZM52.0516 189V160.36H50.0516V189H52.0516ZM60.5316 175.16C61.6782 175.16 62.7598 174.895 63.7607 174.363L62.8224 172.597C62.1167 172.972 61.3582 173.16 60.5316 173.16V175.16ZM63.7495 174.369C64.7802 173.838 65.6101 173.092 66.2164 172.135L64.5267 171.065C64.1197 171.708 63.563 172.215 62.8336 172.591L63.7495 174.369ZM66.2119 172.142C66.8527 171.149 67.1716 170.04 67.1716 168.84H65.1716C65.1716 169.667 64.9571 170.398 64.5313 171.058L66.2119 172.142ZM67.1716 168.84C67.1716 167.779 66.8961 166.77 66.3616 165.827L64.6215 166.813C64.9937 167.47 65.1716 168.141 65.1716 168.84H67.1716ZM66.3616 165.827C65.8202 164.872 65.0571 164.098 64.0941 163.507L63.049 165.213C63.7394 165.636 64.2563 166.168 64.6215 166.813L66.3616 165.827ZM64.1066 163.515C63.1269 162.895 62.003 162.6 60.7716 162.6V164.6C61.6734 164.6 62.4162 164.812 63.0365 165.205L64.1066 163.515ZM60.7716 162.6H54.4116V164.6H60.7716V162.6ZM53.4116 163.6V174.16H55.4116V163.6H53.4116ZM54.4116 175.16H60.5316V173.16H54.4116V175.16ZM98.7878 175.76H99.7878V175.472L99.6345 175.228L98.7878 175.76ZM89.1078 160.36V159.36H87.2981L88.2612 160.892L89.1078 160.36ZM93.0678 160.36L93.9215 159.839L93.6292 159.36H93.0678V160.36ZM100.388 172.36L99.5341 172.881L99.8264 173.36H100.388V172.36ZM100.548 172.36V173.36H101.114L101.405 172.874L100.548 172.36ZM107.748 160.36V159.36H107.182L106.89 159.846L107.748 160.36ZM111.708 160.36L112.558 160.886L113.502 159.36H111.708V160.36ZM102.188 175.76L101.337 175.234L101.188 175.476V175.76H102.188ZM102.188 189V190H103.188V189H102.188ZM98.7878 189H97.7878V190H98.7878V189ZM99.6345 175.228L89.9545 159.828L88.2612 160.892L97.9412 176.292L99.6345 175.228ZM89.1078 161.36H93.0678V159.36H89.1078V161.36ZM92.2141 160.881L99.5341 172.881L101.242 171.839L93.9215 159.839L92.2141 160.881ZM100.388 173.36H100.548V171.36H100.388V173.36ZM101.405 172.874L108.605 160.874L106.89 159.846L99.6903 171.846L101.405 172.874ZM107.748 161.36H111.708V159.36H107.748V161.36ZM110.857 159.834L101.337 175.234L103.038 176.286L112.558 160.886L110.857 159.834ZM101.188 175.76V189H103.188V175.76H101.188ZM102.188 188H98.7878V190H102.188V188ZM99.7878 189V175.76H97.7878V189H99.7878ZM134.751 187.6L134.162 188.408L134.751 187.6ZM130.911 181.88L130.534 180.954L129.705 181.291L129.949 182.152L130.911 181.88ZM134.151 180.56L135.117 180.303L134.826 179.205L133.774 179.634L134.151 180.56ZM136.671 184.76L137.336 184.013L136.671 184.76ZM145.191 185.08L145.8 185.873L145.805 185.869L145.811 185.864L145.191 185.08ZM145.431 178.12L144.755 178.857L144.766 178.867L144.777 178.876L145.431 178.12ZM140.671 175.68L140.336 176.622L140.344 176.625L140.351 176.628L140.671 175.68ZM138.871 175.04L139.206 174.098L139.206 174.098L138.871 175.04ZM133.911 172.2L133.235 172.937L133.911 172.2ZM133.111 163.56L133.949 164.106L133.955 164.097L133.111 163.56ZM136.231 160.76L135.77 159.873L136.231 160.76ZM147.951 162.88L147.177 163.513L147.183 163.52L147.188 163.527L147.951 162.88ZM149.511 165.48L149.902 166.4L150.759 166.036L150.457 165.155L149.511 165.48ZM146.311 166.84L145.346 167.101L145.645 168.21L146.702 167.76L146.311 166.84ZM144.471 164.16L143.82 164.919L143.831 164.928L144.471 164.16ZM136.991 164.2L137.613 164.983H137.613L136.991 164.2ZM136.751 170.08L136.118 170.854L136.125 170.86L136.132 170.865L136.751 170.08ZM140.751 172.04L140.426 172.986L140.429 172.987L140.751 172.04ZM142.631 172.68L142.972 171.74L142.963 171.737L142.953 171.733L142.631 172.68ZM148.311 176L147.611 176.714L147.618 176.721L148.311 176ZM148.911 186L148.117 185.392L148.109 185.403L148.911 186ZM145.351 188.76L145.728 189.686L145.351 188.76ZM140.911 188.64C138.889 188.64 137.041 188.031 135.34 186.792L134.162 188.408C136.194 189.889 138.452 190.64 140.911 190.64V188.64ZM135.34 186.792C133.673 185.577 132.512 183.87 131.873 181.608L129.949 182.152C130.696 184.797 132.095 186.903 134.162 188.408L135.34 186.792ZM131.288 182.806L134.528 181.486L133.774 179.634L130.534 180.954L131.288 182.806ZM133.184 180.817C133.684 182.698 134.622 184.273 136.006 185.507L137.336 184.013C136.267 183.06 135.524 181.836 135.117 180.303L133.184 180.817ZM136.006 185.507C137.417 186.764 139.094 187.4 140.991 187.4V185.4C139.581 185.4 138.379 184.942 137.336 184.013L136.006 185.507ZM140.991 187.4C142.831 187.4 144.454 186.906 145.8 185.873L144.582 184.287C143.635 185.014 142.457 185.4 140.991 185.4V187.4ZM145.811 185.864C147.213 184.756 147.911 183.232 147.911 181.4H145.911C145.911 182.661 145.462 183.591 144.571 184.296L145.811 185.864ZM147.911 181.4C147.911 179.784 147.297 178.412 146.085 177.364L144.777 178.876C145.538 179.535 145.911 180.35 145.911 181.4H147.911ZM146.107 177.383C144.992 176.361 143.248 175.494 140.991 174.732L140.351 176.628C142.521 177.359 143.95 178.119 144.755 178.857L146.107 177.383ZM141.006 174.738L139.206 174.098L138.536 175.982L140.336 176.622L141.006 174.738ZM139.206 174.098C137.276 173.412 135.747 172.527 134.587 171.463L133.235 172.937C134.635 174.22 136.412 175.228 138.536 175.982L139.206 174.098ZM134.587 171.463C133.554 170.516 132.991 169.18 132.991 167.32H130.991C130.991 169.62 131.708 171.537 133.235 172.937L134.587 171.463ZM132.991 167.32C132.991 166.155 133.307 165.091 133.949 164.106L132.273 163.014C131.421 164.322 130.991 165.765 130.991 167.32H132.991ZM133.955 164.097C134.599 163.084 135.502 162.266 136.692 161.647L135.77 159.873C134.293 160.64 133.116 161.69 132.267 163.023L133.955 164.097ZM136.692 161.647C137.869 161.035 139.202 160.72 140.711 160.72V158.72C138.913 158.72 137.259 159.098 135.77 159.873L136.692 161.647ZM140.711 160.72C142.241 160.72 143.522 161.003 144.584 161.534L145.478 159.746C144.087 159.05 142.488 158.72 140.711 158.72V160.72ZM144.584 161.534C145.71 162.097 146.563 162.762 147.177 163.513L148.725 162.247C147.899 161.238 146.805 160.409 145.478 159.746L144.584 161.534ZM147.188 163.527C147.876 164.337 148.322 165.097 148.565 165.805L150.457 165.155C150.113 164.156 149.519 163.183 148.713 162.233L147.188 163.527ZM149.12 164.56L145.92 165.92L146.702 167.76L149.902 166.4L149.12 164.56ZM147.276 166.579C146.945 165.353 146.193 164.294 145.111 163.392L143.831 164.928C144.668 165.626 145.144 166.353 145.346 167.101L147.276 166.579ZM145.122 163.401C143.964 162.409 142.473 161.96 140.751 161.96V163.96C142.122 163.96 143.111 164.311 143.82 164.919L145.122 163.401ZM140.751 161.96C139.083 161.96 137.604 162.435 136.369 163.417L137.613 164.983C138.458 164.312 139.485 163.96 140.751 163.96V161.96ZM136.369 163.417C135.107 164.42 134.431 165.741 134.431 167.32H136.431C136.431 166.392 136.795 165.633 137.613 164.983L136.369 163.417ZM134.431 167.32C134.431 168.745 135.01 169.947 136.118 170.854L137.384 169.306C136.732 168.773 136.431 168.135 136.431 167.32H134.431ZM136.132 170.865C137.141 171.66 138.596 172.357 140.426 172.986L141.076 171.094C139.333 170.496 138.121 169.887 137.37 169.295L136.132 170.865ZM140.429 172.987L142.309 173.627L142.953 171.733L141.073 171.093L140.429 172.987ZM142.29 173.62C144.627 174.468 146.383 175.51 147.611 176.714L149.011 175.286C147.519 173.824 145.488 172.652 142.972 171.74L142.29 173.62ZM147.618 176.721C148.743 177.802 149.351 179.306 149.351 181.36H151.351C151.351 178.88 150.599 176.811 149.004 175.279L147.618 176.721ZM149.351 181.36C149.351 183.018 148.922 184.341 148.117 185.392L149.705 186.608C150.82 185.152 151.351 183.382 151.351 181.36H149.351ZM148.109 185.403C147.284 186.511 146.244 187.316 144.974 187.834L145.728 189.686C147.338 189.03 148.671 187.996 149.713 186.597L148.109 185.403ZM144.974 187.834C143.651 188.373 142.299 188.64 140.911 188.64V190.64C142.563 190.64 144.171 190.32 145.728 189.686L144.974 187.834ZM178.822 163.6H179.822V162.6H178.822V163.6ZM170.782 163.6H169.782V164.6H170.782V163.6ZM170.782 160.36V159.36H169.782V160.36H170.782ZM190.222 160.36H191.222V159.36H190.222V160.36ZM190.222 163.6V164.6H191.222V163.6H190.222ZM182.222 163.6V162.6H181.222V163.6H182.222ZM182.222 189V190H183.222V189H182.222ZM178.822 189H177.822V190H178.822V189ZM178.822 162.6H170.782V164.6H178.822V162.6ZM171.782 163.6V160.36H169.782V163.6H171.782ZM170.782 161.36H190.222V159.36H170.782V161.36ZM189.222 160.36V163.6H191.222V160.36H189.222ZM190.222 162.6H182.222V164.6H190.222V162.6ZM181.222 163.6V189H183.222V163.6H181.222ZM182.222 188H178.822V190H182.222V188ZM179.822 189V163.6H177.822V189H179.822ZM218.128 160.36V159.36H217.437L217.192 160.006L218.128 160.36ZM221.967 160.36L222.902 160.005L222.657 159.36H221.967V160.36ZM232.848 189V190H234.297L233.782 188.645L232.848 189ZM229.128 189L228.188 189.343L228.428 190H229.128V189ZM226.247 181.12L227.187 180.777L226.947 180.12H226.247V181.12ZM213.887 181.12V180.12H213.188L212.948 180.777L213.887 181.12ZM211.008 189V190H211.707L211.947 189.343L211.008 189ZM207.288 189L206.352 188.646L205.84 190H207.288V189ZM225.087 177.92V178.92H226.521L226.026 177.574L225.087 177.92ZM221.288 167.6L222.226 167.254L222.223 167.248L221.288 167.6ZM220.128 164.52L221.063 164.168L220.819 163.52H220.128V164.52ZM219.967 164.52V163.52H219.267L219.028 164.178L219.967 164.52ZM218.848 167.6L219.786 167.946L219.787 167.942L218.848 167.6ZM215.048 177.92L214.109 177.574L213.614 178.92H215.048V177.92ZM218.128 161.36H221.967V159.36H218.128V161.36ZM221.033 160.715L231.913 189.355L233.782 188.645L222.902 160.005L221.033 160.715ZM232.848 188H229.128V190H232.848V188ZM230.067 188.657L227.187 180.777L225.308 181.463L228.188 189.343L230.067 188.657ZM226.247 180.12H213.887V182.12H226.247V180.12ZM212.948 180.777L210.068 188.657L211.947 189.343L214.827 181.463L212.948 180.777ZM211.008 188H207.288V190H211.008V188ZM208.223 189.354L219.063 160.714L217.192 160.006L206.352 188.646L208.223 189.354ZM226.026 177.574L222.226 167.254L220.349 167.946L224.149 178.266L226.026 177.574ZM222.223 167.248L221.063 164.168L219.192 164.872L220.352 167.952L222.223 167.248ZM220.128 163.52H219.967V165.52H220.128V163.52ZM219.028 164.178L217.908 167.258L219.787 167.942L220.907 164.862L219.028 164.178ZM217.909 167.254L214.109 177.574L215.986 178.266L219.786 167.946L217.909 167.254ZM215.048 178.92H225.087V176.92H215.048V178.92ZM254.645 160.36V159.36H253.645V160.36H254.645ZM258.005 160.36H259.005V159.36H258.005V160.36ZM258.005 185.76H257.005V186.76H258.005V185.76ZM270.565 185.76H271.565V184.76H270.565V185.76ZM270.565 189V190H271.565V189H270.565ZM254.645 189H253.645V190H254.645V189ZM254.645 161.36H258.005V159.36H254.645V161.36ZM257.005 160.36V185.76H259.005V160.36H257.005ZM258.005 186.76H270.565V184.76H258.005V186.76ZM269.565 185.76V189H271.565V185.76H269.565ZM270.565 188H254.645V190H270.565V188ZM255.645 189V160.36H253.645V189H255.645Z" fill="black" mask="url(#path-1-outside-1_43_9853)"/>
<mask id="path-3-inside-2_43_9853" fill="white">
<path d="M113.4 120.921C123.367 123.968 133.19 124.403 142.868 122.227C152.545 120.051 160.992 115.56 168.208 108.754C175.424 101.947 180.555 93.5606 183.603 83.5935C186.65 73.6265 187.085 63.8041 184.909 54.1263C182.733 44.4486 178.242 36.0018 171.435 28.786C164.629 21.5701 156.242 16.4385 146.275 13.3913C138.513 11.018 131.029 10.302 123.825 11.2432C116.525 12.1552 109.596 14.5954 103.038 18.5638L111.154 33.1491C115.989 30.0164 120.871 28.103 125.799 27.4089C130.756 26.619 136.014 27.0738 141.573 28.7732C148.473 30.8828 154.315 34.398 159.098 39.3186C163.786 44.21 166.913 50.0914 168.48 56.963C170.076 63.7388 169.702 70.9601 167.358 78.6271C165.014 86.2941 161.271 92.5379 156.13 97.3584C151.017 102.083 145.15 105.162 138.529 106.596C131.812 108.001 125.003 107.648 118.103 105.539C106.603 102.023 98.2922 94.2423 93.1719 82.1973L78.0995 89.8503C81.2957 97.22 85.8938 103.604 91.8937 109.001C97.8936 114.398 105.062 118.372 113.4 120.921Z"/>
</mask>
<path d="M113.4 120.921C123.367 123.968 133.19 124.403 142.868 122.227C152.545 120.051 160.992 115.56 168.208 108.754C175.424 101.947 180.555 93.5606 183.603 83.5935C186.65 73.6265 187.085 63.8041 184.909 54.1263C182.733 44.4486 178.242 36.0018 171.435 28.786C164.629 21.5701 156.242 16.4385 146.275 13.3913C138.513 11.018 131.029 10.302 123.825 11.2432C116.525 12.1552 109.596 14.5954 103.038 18.5638L111.154 33.1491C115.989 30.0164 120.871 28.103 125.799 27.4089C130.756 26.619 136.014 27.0738 141.573 28.7732C148.473 30.8828 154.315 34.398 159.098 39.3186C163.786 44.21 166.913 50.0914 168.48 56.963C170.076 63.7388 169.702 70.9601 167.358 78.6271C165.014 86.2941 161.271 92.5379 156.13 97.3584C151.017 102.083 145.15 105.162 138.529 106.596C131.812 108.001 125.003 107.648 118.103 105.539C106.603 102.023 98.2922 94.2423 93.1719 82.1973L78.0995 89.8503C81.2957 97.22 85.8938 103.604 91.8937 109.001C97.8936 114.398 105.062 118.372 113.4 120.921Z" fill="black"/>
<path d="M142.868 122.227L143.306 124.179L142.868 122.227ZM168.208 108.754L166.836 107.299L168.208 108.754ZM184.909 54.1263L186.86 53.6876L186.86 53.6876L184.909 54.1263ZM171.435 28.786L172.89 27.4136L171.435 28.786ZM123.825 11.2432L124.084 13.2264L124.073 13.2278L123.825 11.2432ZM103.038 18.5638L101.29 19.5364L100.352 17.8512L102.002 16.8527L103.038 18.5638ZM111.154 33.1491L112.242 34.8276L110.447 35.9906L109.406 34.1216L111.154 33.1491ZM125.799 27.4089L126.114 29.384L126.096 29.3868L126.078 29.3894L125.799 27.4089ZM159.098 39.3186L160.532 37.9246L160.537 37.9297L160.542 37.9348L159.098 39.3186ZM168.48 56.963L166.533 57.4216L166.531 57.4147L166.53 57.4077L168.48 56.963ZM156.13 97.3584L157.498 98.8175L157.492 98.8224L157.487 98.8272L156.13 97.3584ZM138.529 106.596L138.952 108.551L138.946 108.553L138.939 108.554L138.529 106.596ZM93.1719 82.1973L92.2664 80.414L94.1751 79.4449L95.0125 81.4149L93.1719 82.1973ZM78.0995 89.8503L76.2647 90.6461L75.5157 88.9192L77.1941 88.067L78.0995 89.8503ZM91.8937 109.001L93.2313 107.514L91.8937 109.001ZM113.985 119.008C123.638 121.959 133.107 122.372 142.429 120.276L143.306 124.179C133.272 126.435 123.097 125.977 112.816 122.833L113.985 119.008ZM142.429 120.276C151.756 118.179 159.881 113.859 166.836 107.299L169.58 110.208C162.103 117.261 153.334 121.924 143.306 124.179L142.429 120.276ZM166.836 107.299C173.786 100.743 178.739 92.6613 181.69 83.0088L185.515 84.1783C182.372 94.4599 177.062 103.152 169.58 110.208L166.836 107.299ZM181.69 83.0088C184.641 73.3562 185.054 63.8867 182.958 54.5651L186.86 53.6876C189.117 63.7214 188.659 73.8967 185.515 84.1783L181.69 83.0088ZM182.958 54.5651C180.86 45.2375 176.541 37.1131 169.981 30.1583L172.89 27.4136C179.943 34.8905 184.605 43.6598 186.86 53.6876L182.958 54.5651ZM169.981 30.1583C163.425 23.208 155.343 18.255 145.691 15.3039L146.86 11.4787C157.142 14.6221 165.834 19.9322 172.89 27.4136L169.981 30.1583ZM145.691 15.3039C138.169 13.0042 130.973 12.3262 124.084 13.2264L123.566 9.26011C131.085 8.2777 138.856 9.03173 146.86 11.4787L145.691 15.3039ZM124.073 13.2278C117.063 14.1035 110.401 16.4458 104.073 20.2749L102.002 16.8527C108.79 12.7451 115.986 10.207 123.577 9.25868L124.073 13.2278ZM104.785 17.5913L112.902 32.1766L109.406 34.1216L101.29 19.5364L104.785 17.5913ZM110.067 31.4706C115.108 28.2044 120.262 26.169 125.52 25.4285L126.078 29.3894C121.48 30.0369 116.871 31.8283 112.242 34.8276L110.067 31.4706ZM125.484 25.4338C130.786 24.589 136.354 25.0862 142.157 26.8606L140.988 30.6858C135.675 29.0614 130.726 28.649 126.114 29.384L125.484 25.4338ZM142.157 26.8606C149.363 29.0635 155.502 32.7497 160.532 37.9246L157.664 40.7127C153.128 36.0462 147.583 32.7021 140.988 30.6858L142.157 26.8606ZM160.542 37.9348C165.49 43.0984 168.786 49.3086 170.43 56.5184L166.53 57.4077C165.04 50.8743 162.081 45.3215 157.654 40.7024L160.542 37.9348ZM170.426 56.5044C172.116 63.6743 171.702 71.2584 169.271 79.2119L165.446 78.0424C167.702 70.6619 168.036 63.8033 166.533 57.4216L170.426 56.5044ZM169.271 79.2119C166.839 87.1661 162.927 93.7267 157.498 98.8175L154.762 95.8994C159.615 91.349 163.189 85.4221 165.446 78.0424L169.271 79.2119ZM157.487 98.8272C152.12 103.787 145.933 107.039 138.952 108.551L138.106 104.642C144.368 103.286 149.915 100.379 154.772 95.8896L157.487 98.8272ZM138.939 108.554C131.874 110.031 124.724 109.654 117.518 107.451L118.688 103.626C125.283 105.643 131.75 105.971 138.12 104.639L138.939 108.554ZM117.518 107.451C105.399 103.746 96.6596 95.514 91.3313 82.9798L95.0125 81.4149C99.9248 92.9706 107.807 100.3 118.688 103.626L117.518 107.451ZM94.0774 83.9806L79.005 91.6336L77.1941 88.067L92.2664 80.414L94.0774 83.9806ZM79.9344 89.0545C83.0158 96.1595 87.4438 102.308 93.2313 107.514L90.5561 110.488C84.3438 104.899 79.5757 98.2804 76.2647 90.6461L79.9344 89.0545ZM93.2313 107.514C98.9973 112.701 105.903 116.537 113.985 119.008L112.816 122.833C104.222 120.206 96.79 116.096 90.5561 110.488L93.2313 107.514Z" fill="white" mask="url(#path-3-inside-2_43_9853)"/>
<mask id="path-5-outside-3_43_9853" maskUnits="userSpaceOnUse" x="91.7125" y="33.0013" width="72.6673" height="74.8634" fill="black">
<rect fill="white" x="91.7125" y="33.0013" width="72.6673" height="74.8634"/>
<path d="M144.257 91.8558C139.911 94.3649 135.35 95.6331 130.574 95.6603C125.798 95.6876 121.349 94.4954 117.227 92.0839C113.104 89.6723 109.789 86.2936 107.279 81.9476C104.77 77.6017 103.502 73.0408 103.475 68.2649C103.448 63.489 104.64 59.0398 107.051 54.9173C109.463 50.7949 112.842 47.4791 117.188 44.97C120.572 43.0158 124.006 41.8693 127.487 41.5306C131.011 41.1678 134.526 41.5621 138.032 42.7136L135.804 50.4352C133.197 49.4892 130.699 49.1203 128.312 49.3284C125.901 49.4948 123.483 50.2776 121.06 51.6769C118.051 53.414 115.691 55.6958 113.98 58.5224C112.311 61.3248 111.481 64.4228 111.49 67.8162C111.475 71.1679 112.432 74.5152 114.362 77.8583C116.293 81.2013 118.725 83.7251 121.659 85.4297C124.569 87.0926 127.655 87.9018 130.917 87.8573C134.22 87.7888 137.376 86.8859 140.385 85.1488C145.399 82.2537 148.455 77.7035 149.553 71.4981L157.453 73.4559C156.752 77.2595 155.286 80.7523 153.056 83.9343C150.825 87.1163 147.893 89.7568 144.257 91.8558Z"/>
</mask>
<path d="M144.257 91.8558C139.911 94.3649 135.35 95.6331 130.574 95.6603C125.798 95.6876 121.349 94.4954 117.227 92.0839C113.104 89.6723 109.789 86.2936 107.279 81.9476C104.77 77.6017 103.502 73.0408 103.475 68.2649C103.448 63.489 104.64 59.0398 107.051 54.9173C109.463 50.7949 112.842 47.4791 117.188 44.97C120.572 43.0158 124.006 41.8693 127.487 41.5306C131.011 41.1678 134.526 41.5621 138.032 42.7136L135.804 50.4352C133.197 49.4892 130.699 49.1203 128.312 49.3284C125.901 49.4948 123.483 50.2776 121.06 51.6769C118.051 53.414 115.691 55.6958 113.98 58.5224C112.311 61.3248 111.481 64.4228 111.49 67.8162C111.475 71.1679 112.432 74.5152 114.362 77.8583C116.293 81.2013 118.725 83.7251 121.659 85.4297C124.569 87.0926 127.655 87.9018 130.917 87.8573C134.22 87.7888 137.376 86.8859 140.385 85.1488C145.399 82.2537 148.455 77.7035 149.553 71.4981L157.453 73.4559C156.752 77.2595 155.286 80.7523 153.056 83.9343C150.825 87.1163 147.893 89.7568 144.257 91.8558Z" fill="black"/>
<path d="M130.574 95.6603L130.58 96.6603L130.574 95.6603ZM117.227 92.0839L117.732 91.2207L117.227 92.0839ZM103.475 68.2649L102.475 68.2706L103.475 68.2649ZM107.051 54.9173L106.188 54.4124L107.051 54.9173ZM127.487 41.5306L127.584 42.5259L127.59 42.5254L127.487 41.5306ZM138.032 42.7136L138.993 42.9908L139.26 42.0644L138.344 41.7635L138.032 42.7136ZM135.804 50.4352L135.463 51.3753L136.469 51.74L136.765 50.7124L135.804 50.4352ZM128.312 49.3284L128.381 50.3261L128.39 50.3254L128.399 50.3246L128.312 49.3284ZM113.98 58.5224L113.125 58.0045L113.121 58.0106L113.98 58.5224ZM111.49 67.8162L112.49 67.8207L112.49 67.8135L111.49 67.8162ZM121.659 85.4297L121.157 86.2944L121.163 86.298L121.659 85.4297ZM130.917 87.8573L130.93 88.8573L130.937 88.8571L130.917 87.8573ZM149.553 71.4981L149.793 70.5275L148.755 70.27L148.568 71.3239L149.553 71.4981ZM157.453 73.4559L158.436 73.6372L158.607 72.7117L157.693 72.4853L157.453 73.4559ZM153.056 83.9343L152.237 83.3604L153.056 83.9343ZM143.757 90.9897C139.554 93.4166 135.162 94.6341 130.569 94.6603L130.58 96.6603C135.538 96.632 140.269 95.3131 144.757 92.7218L143.757 90.9897ZM130.569 94.6603C125.972 94.6866 121.699 93.5417 117.732 91.2207L116.722 92.947C120.999 95.4492 125.625 96.6886 130.58 96.6603L130.569 94.6603ZM117.732 91.2207C113.767 88.9013 110.572 85.6511 108.145 81.4476L106.413 82.4476C109.005 86.936 112.442 90.4433 116.722 92.947L117.732 91.2207ZM108.145 81.4476C105.719 77.2441 104.501 72.8526 104.475 68.2592L102.475 68.2706C102.503 73.229 103.822 77.9593 106.413 82.4476L108.145 81.4476ZM104.475 68.2592C104.449 63.6627 105.594 59.3899 107.915 55.4223L106.188 54.4124C103.686 58.6897 102.447 63.3153 102.475 68.2706L104.475 68.2592ZM107.915 55.4223C110.234 51.4574 113.484 48.2629 117.688 45.836L116.688 44.104C112.199 46.6953 108.692 50.1324 106.188 54.4124L107.915 55.4223ZM117.688 45.836C120.963 43.9448 124.26 42.8493 127.584 42.5259L127.391 40.5353C123.751 40.8894 120.181 42.0868 116.688 44.104L117.688 45.836ZM127.59 42.5254C130.968 42.1775 134.342 42.5542 137.72 43.6637L138.344 41.7635C134.71 40.5701 131.054 40.1581 127.385 40.5359L127.59 42.5254ZM137.071 42.4364L134.844 50.158L136.765 50.7124L138.993 42.9908L137.071 42.4364ZM136.145 49.4952C133.422 48.5073 130.779 48.1096 128.225 48.3322L128.399 50.3246C130.62 50.131 132.971 50.4711 135.463 51.3753L136.145 49.4952ZM128.243 48.3308C125.658 48.5092 123.095 49.3475 120.56 50.8109L121.56 52.5429C123.872 51.2077 126.144 50.4804 128.381 50.3261L128.243 48.3308ZM120.56 50.8109C117.413 52.6277 114.928 55.0263 113.125 58.0045L114.836 59.0402C116.455 56.3653 118.689 54.2003 121.56 52.5429L120.56 50.8109ZM113.121 58.0106C111.355 60.9751 110.48 64.252 110.49 67.8189L112.49 67.8135C112.481 64.5935 113.266 61.6746 114.839 59.0341L113.121 58.0106ZM110.49 67.8117C110.474 71.3659 111.491 74.8855 113.496 78.3583L115.228 77.3583C113.373 74.145 112.476 70.9699 112.49 67.8207L110.49 67.8117ZM113.496 78.3583C115.502 81.8314 118.052 84.4906 121.157 86.2944L122.161 84.5651C119.398 82.9596 117.083 80.5712 115.228 77.3583L113.496 78.3583ZM121.163 86.298C124.224 88.0469 127.485 88.9042 130.93 88.8572L130.903 86.8574C127.825 86.8994 124.915 86.1383 122.155 84.5615L121.163 86.298ZM130.937 88.8571C134.418 88.7849 137.738 87.8317 140.885 86.0149L139.885 84.2828C137.014 85.9401 134.022 86.7926 130.896 86.8575L130.937 88.8571ZM140.885 86.0149C146.18 82.9578 149.394 78.1394 150.538 71.6723L148.568 71.3239C147.517 77.2675 144.619 81.5496 139.885 84.2828L140.885 86.0149ZM149.312 72.4687L157.212 74.4266L157.693 72.4853L149.793 70.5275L149.312 72.4687ZM156.469 73.2746C155.794 76.9364 154.385 80.2954 152.237 83.3604L153.875 84.5083C156.187 81.2093 157.709 77.5827 158.436 73.6372L156.469 73.2746ZM152.237 83.3604C150.097 86.4135 147.277 88.9578 143.757 90.9897L144.757 92.7218C148.509 90.5558 151.554 87.8191 153.875 84.5083L152.237 83.3604Z" fill="black" mask="url(#path-5-outside-3_43_9853)"/>
<path d="M154.065 52.0152L140.491 60.4972L140.067 60.7621L140.332 61.1861L141.831 63.5848L142.096 64.0088L142.52 63.7438L156.094 55.2619L153.952 64.5387L153.839 65.0259L154.327 65.1384L157.083 65.7746L157.57 65.8871L157.682 65.3999L161.182 50.2423L161.294 49.7551L160.807 49.6426L145.649 46.1432L145.162 46.0307L145.05 46.5179L144.413 49.2738L144.301 49.761L144.788 49.8735L154.065 52.0152Z" fill="#15CC96" stroke="#15CC96"/>
</svg>
