<svg width="341" height="108" viewBox="0 0 341 108" fill="none" xmlns="http://www.w3.org/2000/svg">
<mask id="path-1-outside-1_6_2" maskUnits="userSpaceOnUse" x="118.714" y="42" width="222" height="33" fill="black">
<rect fill="white" x="118.714" y="42" width="222" height="33"/>
<path d="M119.941 44.36H129.621C131.195 44.36 132.661 44.72 134.021 45.44C135.381 46.16 136.461 47.1733 137.261 48.48C138.088 49.76 138.501 51.2133 138.501 52.84C138.501 54.1733 138.195 55.4133 137.581 56.56C136.995 57.7067 136.168 58.6667 135.101 59.44C134.061 60.2133 132.901 60.7333 131.621 61L131.541 61.12L139.621 72.84V73H135.621L127.821 61.32H123.301V73H119.941V44.36ZM129.421 58.16C130.408 58.16 131.328 57.9333 132.181 57.48C133.061 57.0267 133.755 56.4 134.261 55.6C134.795 54.7733 135.061 53.8533 135.061 52.84C135.061 51.96 134.835 51.12 134.381 50.32C133.928 49.52 133.288 48.8667 132.461 48.36C131.661 47.8533 130.728 47.6 129.661 47.6H123.301V58.16H129.421ZM167.677 59.76L157.997 44.36H161.957L169.277 56.36H169.437L176.637 44.36H180.597L171.077 59.76V73H167.677V59.76ZM209.801 73.64C207.561 73.64 205.507 72.96 203.641 71.6C201.774 70.24 200.494 68.3333 199.801 65.88L203.041 64.56C203.494 66.2667 204.334 67.6667 205.561 68.76C206.787 69.8533 208.227 70.4 209.881 70.4C211.534 70.4 212.934 69.96 214.081 69.08C215.227 68.1733 215.801 66.9467 215.801 65.4C215.801 64.0667 215.307 62.9733 214.321 62.12C213.361 61.24 211.774 60.4267 209.561 59.68L207.761 59.04C205.734 58.32 204.081 57.3733 202.801 56.2C201.521 55.0267 200.881 53.4 200.881 51.32C200.881 49.96 201.254 48.7067 202.001 47.56C202.747 46.3867 203.787 45.4533 205.121 44.76C206.454 44.0667 207.947 43.72 209.601 43.72C211.254 43.72 212.694 44.0267 213.921 44.64C215.147 45.2533 216.121 46 216.841 46.88C217.587 47.76 218.107 48.6267 218.401 49.48L215.201 50.84C214.934 49.8533 214.321 48.96 213.361 48.16C212.427 47.36 211.187 46.96 209.641 46.96C208.174 46.96 206.921 47.3733 205.881 48.2C204.841 49.0267 204.321 50.0667 204.321 51.32C204.321 52.44 204.761 53.36 205.641 54.08C206.521 54.7733 207.854 55.4267 209.641 56.04L211.521 56.68C213.947 57.56 215.841 58.6667 217.201 60C218.561 61.3067 219.241 63.0933 219.241 65.36C219.241 67.2 218.761 68.7467 217.801 70C216.867 71.2533 215.681 72.1733 214.241 72.76C212.801 73.3467 211.321 73.64 209.801 73.64ZM247.712 47.6H239.672V44.36H259.112V47.6H251.112V73H247.712V47.6ZM287.017 44.36H290.857L301.737 73H298.017L295.137 65.12H282.777L279.897 73H276.177L287.017 44.36ZM293.977 61.92L290.177 51.6L289.017 48.52H288.857L287.737 51.6L283.937 61.92H293.977ZM323.535 44.36H326.895V69.76H339.455V73H323.535V44.36Z"/>
</mask>
<path d="M119.941 44.36H129.621C131.195 44.36 132.661 44.72 134.021 45.44C135.381 46.16 136.461 47.1733 137.261 48.48C138.088 49.76 138.501 51.2133 138.501 52.84C138.501 54.1733 138.195 55.4133 137.581 56.56C136.995 57.7067 136.168 58.6667 135.101 59.44C134.061 60.2133 132.901 60.7333 131.621 61L131.541 61.12L139.621 72.84V73H135.621L127.821 61.32H123.301V73H119.941V44.36ZM129.421 58.16C130.408 58.16 131.328 57.9333 132.181 57.48C133.061 57.0267 133.755 56.4 134.261 55.6C134.795 54.7733 135.061 53.8533 135.061 52.84C135.061 51.96 134.835 51.12 134.381 50.32C133.928 49.52 133.288 48.8667 132.461 48.36C131.661 47.8533 130.728 47.6 129.661 47.6H123.301V58.16H129.421ZM167.677 59.76L157.997 44.36H161.957L169.277 56.36H169.437L176.637 44.36H180.597L171.077 59.76V73H167.677V59.76ZM209.801 73.64C207.561 73.64 205.507 72.96 203.641 71.6C201.774 70.24 200.494 68.3333 199.801 65.88L203.041 64.56C203.494 66.2667 204.334 67.6667 205.561 68.76C206.787 69.8533 208.227 70.4 209.881 70.4C211.534 70.4 212.934 69.96 214.081 69.08C215.227 68.1733 215.801 66.9467 215.801 65.4C215.801 64.0667 215.307 62.9733 214.321 62.12C213.361 61.24 211.774 60.4267 209.561 59.68L207.761 59.04C205.734 58.32 204.081 57.3733 202.801 56.2C201.521 55.0267 200.881 53.4 200.881 51.32C200.881 49.96 201.254 48.7067 202.001 47.56C202.747 46.3867 203.787 45.4533 205.121 44.76C206.454 44.0667 207.947 43.72 209.601 43.72C211.254 43.72 212.694 44.0267 213.921 44.64C215.147 45.2533 216.121 46 216.841 46.88C217.587 47.76 218.107 48.6267 218.401 49.48L215.201 50.84C214.934 49.8533 214.321 48.96 213.361 48.16C212.427 47.36 211.187 46.96 209.641 46.96C208.174 46.96 206.921 47.3733 205.881 48.2C204.841 49.0267 204.321 50.0667 204.321 51.32C204.321 52.44 204.761 53.36 205.641 54.08C206.521 54.7733 207.854 55.4267 209.641 56.04L211.521 56.68C213.947 57.56 215.841 58.6667 217.201 60C218.561 61.3067 219.241 63.0933 219.241 65.36C219.241 67.2 218.761 68.7467 217.801 70C216.867 71.2533 215.681 72.1733 214.241 72.76C212.801 73.3467 211.321 73.64 209.801 73.64ZM247.712 47.6H239.672V44.36H259.112V47.6H251.112V73H247.712V47.6ZM287.017 44.36H290.857L301.737 73H298.017L295.137 65.12H282.777L279.897 73H276.177L287.017 44.36ZM293.977 61.92L290.177 51.6L289.017 48.52H288.857L287.737 51.6L283.937 61.92H293.977ZM323.535 44.36H326.895V69.76H339.455V73H323.535V44.36Z" fill="black" style="fill:black;fill-opacity:1;"/>
<path d="M119.941 44.36V43.36H118.941V44.36H119.941ZM134.021 45.44L133.553 46.3238L133.553 46.3238L134.021 45.44ZM137.261 48.48L136.408 49.0022L136.415 49.0124L136.421 49.0225L137.261 48.48ZM137.581 56.56L136.699 56.0883L136.695 56.0964L136.691 56.1045L137.581 56.56ZM135.101 59.44L134.514 58.6303L134.505 58.6375L135.101 59.44ZM131.621 61L131.417 60.021L131.016 60.1045L130.789 60.4453L131.621 61ZM131.541 61.12L130.709 60.5653L130.333 61.1294L130.718 61.6876L131.541 61.12ZM139.621 72.84H140.621V72.5287L140.445 72.2724L139.621 72.84ZM139.621 73V74H140.621V73H139.621ZM135.621 73L134.79 73.5554L135.087 74H135.621V73ZM127.821 61.32L128.653 60.7646L128.356 60.32H127.821V61.32ZM123.301 61.32V60.32H122.301V61.32H123.301ZM123.301 73V74H124.301V73H123.301ZM119.941 73H118.941V74H119.941V73ZM132.181 57.48L131.723 56.591L131.712 56.5969L132.181 57.48ZM134.261 55.6L133.421 55.0579L133.416 55.0649L134.261 55.6ZM134.381 50.32L135.251 49.827L135.251 49.827L134.381 50.32ZM132.461 48.36L131.926 49.2048L131.932 49.2088L131.939 49.2126L132.461 48.36ZM123.301 47.6V46.6H122.301V47.6H123.301ZM123.301 58.16H122.301V59.16H123.301V58.16ZM119.941 45.36H129.621V43.36H119.941V45.36ZM129.621 45.36C131.035 45.36 132.341 45.6819 133.553 46.3238L134.489 44.5562C132.982 43.7581 131.354 43.36 129.621 43.36V45.36ZM133.553 46.3238C134.756 46.9603 135.702 47.8491 136.408 49.0022L138.114 47.9578C137.22 46.4976 136.007 45.3597 134.489 44.5562L133.553 46.3238ZM136.421 49.0225C137.136 50.1298 137.501 51.3922 137.501 52.84H139.501C139.501 51.0345 139.039 49.3902 138.101 47.9375L136.421 49.0225ZM137.501 52.84C137.501 54.0131 137.233 55.0906 136.699 56.0883L138.463 57.0317C139.156 55.7361 139.501 54.3335 139.501 52.84H137.501ZM136.691 56.1045C136.178 57.1076 135.456 57.9474 134.514 58.6304L135.688 60.2496C136.879 59.386 137.811 58.3057 138.471 57.0155L136.691 56.1045ZM134.505 58.6375C133.582 59.3234 132.556 59.7837 131.417 60.021L131.825 61.979C133.246 61.683 134.54 61.1032 135.698 60.2425L134.505 58.6375ZM130.789 60.4453L130.709 60.5653L132.373 61.6747L132.453 61.5547L130.789 60.4453ZM130.718 61.6876L138.798 73.4076L140.445 72.2724L132.365 60.5524L130.718 61.6876ZM138.621 72.84V73H140.621V72.84H138.621ZM139.621 72H135.621V74H139.621V72ZM136.453 72.4446L128.653 60.7646L126.99 61.8754L134.79 73.5554L136.453 72.4446ZM127.821 60.32H123.301V62.32H127.821V60.32ZM122.301 61.32V73H124.301V61.32H122.301ZM123.301 72H119.941V74H123.301V72ZM120.941 73V44.36H118.941V73H120.941ZM129.421 59.16C130.568 59.16 131.649 58.8949 132.65 58.3631L131.712 56.5969C131.006 56.9718 130.248 57.16 129.421 57.16V59.16ZM132.639 58.369C133.67 57.838 134.5 57.0923 135.106 56.1351L133.416 55.0649C133.009 55.7077 132.453 56.2153 131.723 56.591L132.639 58.369ZM135.102 56.1421C135.742 55.1488 136.061 54.0395 136.061 52.84H134.061C134.061 53.6671 133.847 54.3979 133.421 55.0579L135.102 56.1421ZM136.061 52.84C136.061 51.7793 135.786 50.7703 135.251 49.827L133.511 50.813C133.883 51.4697 134.061 52.1407 134.061 52.84H136.061ZM135.251 49.827C134.71 48.8715 133.947 48.0976 132.984 47.5074L131.939 49.2126C132.629 49.6358 133.146 50.1685 133.511 50.813L135.251 49.827ZM132.996 47.5152C132.017 46.8947 130.893 46.6 129.661 46.6V48.6C130.563 48.6 131.306 48.8119 131.926 49.2048L132.996 47.5152ZM129.661 46.6H123.301V48.6H129.661V46.6ZM122.301 47.6V58.16H124.301V47.6H122.301ZM123.301 59.16H129.421V57.16H123.301V59.16ZM167.677 59.76H168.677V59.4718L168.524 59.2278L167.677 59.76ZM157.997 44.36V43.36H156.188L157.151 44.8922L157.997 44.36ZM161.957 44.36L162.811 43.8392L162.519 43.36H161.957V44.36ZM169.277 56.36L168.424 56.8808L168.716 57.36H169.277V56.36ZM169.437 56.36V57.36H170.004L170.295 56.8745L169.437 56.36ZM176.637 44.36V43.36H176.071L175.78 43.8455L176.637 44.36ZM180.597 44.36L181.448 44.8858L182.391 43.36H180.597V44.36ZM171.077 59.76L170.227 59.2342L170.077 59.4759V59.76H171.077ZM171.077 73V74H172.077V73H171.077ZM167.677 73H166.677V74H167.677V73ZM168.524 59.2278L158.844 43.8278L157.151 44.8922L166.831 60.2922L168.524 59.2278ZM157.997 45.36H161.957V43.36H157.997V45.36ZM161.104 44.8808L168.424 56.8808L170.131 55.8392L162.811 43.8392L161.104 44.8808ZM169.277 57.36H169.437V55.36H169.277V57.36ZM170.295 56.8745L177.495 44.8745L175.78 43.8455L168.58 55.8455L170.295 56.8745ZM176.637 45.36H180.597V43.36H176.637V45.36ZM179.747 43.8342L170.227 59.2342L171.928 60.2858L181.448 44.8858L179.747 43.8342ZM170.077 59.76V73H172.077V59.76H170.077ZM171.077 72H167.677V74H171.077V72ZM168.677 73V59.76H166.677V73H168.677ZM203.641 71.6L203.052 72.4082L203.052 72.4082L203.641 71.6ZM199.801 65.88L199.423 64.9539L198.595 65.2913L198.838 66.152L199.801 65.88ZM203.041 64.56L204.007 64.3033L203.715 63.2053L202.663 63.6339L203.041 64.56ZM205.561 68.76L206.226 68.0135L206.226 68.0135L205.561 68.76ZM214.081 69.08L214.689 69.8733L214.695 69.8689L214.701 69.8644L214.081 69.08ZM214.321 62.12L213.645 62.8572L213.656 62.8669L213.666 62.8764L214.321 62.12ZM209.561 59.68L209.226 60.6222L209.233 60.6249L209.241 60.6275L209.561 59.68ZM207.761 59.04L208.096 58.0978L208.095 58.0977L207.761 59.04ZM202.801 56.2L202.125 56.9372L202.125 56.9372L202.801 56.2ZM202.001 47.56L202.839 48.1057L202.844 48.0969L202.001 47.56ZM205.121 44.76L204.659 43.8728L204.659 43.8728L205.121 44.76ZM216.841 46.88L216.067 47.5132L216.072 47.5202L216.078 47.527L216.841 46.88ZM218.401 49.48L218.792 50.4003L219.649 50.0359L219.346 49.1549L218.401 49.48ZM215.201 50.84L214.235 51.1009L214.535 52.2095L215.592 51.7603L215.201 50.84ZM213.361 48.16L212.71 48.9193L212.72 48.9282L213.361 48.16ZM205.881 48.2L206.503 48.9828L206.503 48.9828L205.881 48.2ZM205.641 54.08L205.007 54.854L205.014 54.8598L205.022 54.8655L205.641 54.08ZM209.641 56.04L209.316 56.9858L209.318 56.9866L209.641 56.04ZM211.521 56.68L211.861 55.7399L211.852 55.7365L211.843 55.7333L211.521 56.68ZM217.201 60L216.5 60.7141L216.508 60.7211L217.201 60ZM217.801 70L217.007 69.3919L216.999 69.4027L217.801 70ZM214.241 72.76L214.618 73.6861L214.618 73.6861L214.241 72.76ZM209.801 72.64C207.779 72.64 205.931 72.0313 204.229 70.7918L203.052 72.4082C205.084 73.8887 207.342 74.64 209.801 74.64V72.64ZM204.229 70.7918C202.563 69.5775 201.402 67.8696 200.763 65.608L198.838 66.152C199.586 68.7971 200.985 70.9025 203.052 72.4082L204.229 70.7918ZM200.178 66.8061L203.418 65.4861L202.663 63.6339L199.423 64.9539L200.178 66.8061ZM202.074 64.8167C202.574 66.6978 203.511 68.2731 204.895 69.5065L206.226 68.0135C205.156 67.0602 204.414 65.8355 204.007 64.3033L202.074 64.8167ZM204.895 69.5065C206.306 70.7642 207.984 71.4 209.881 71.4V69.4C208.471 69.4 207.268 68.9424 206.226 68.0135L204.895 69.5065ZM209.881 71.4C211.721 71.4 213.343 70.9062 214.689 69.8733L213.472 68.2867C212.524 69.0138 211.347 69.4 209.881 69.4V71.4ZM214.701 69.8644C216.103 68.7557 216.801 67.2319 216.801 65.4H214.801C214.801 66.6614 214.352 67.5909 213.46 68.2956L214.701 69.8644ZM216.801 65.4C216.801 63.7837 216.187 62.4117 214.975 61.3636L213.666 62.8764C214.428 63.535 214.801 64.3497 214.801 65.4H216.801ZM214.996 61.3828C213.882 60.3613 212.137 59.4939 209.88 58.7325L209.241 60.6275C211.411 61.3595 212.839 62.1187 213.645 62.8572L214.996 61.3828ZM209.896 58.7378L208.096 58.0978L207.426 59.9822L209.226 60.6222L209.896 58.7378ZM208.095 58.0977C206.166 57.4122 204.637 56.5268 203.476 55.4628L202.125 56.9372C203.524 58.2199 205.302 59.2278 207.426 59.9823L208.095 58.0977ZM203.476 55.4628C202.444 54.5161 201.881 53.1799 201.881 51.32H199.881C199.881 53.6201 200.598 55.5372 202.125 56.9372L203.476 55.4628ZM201.881 51.32C201.881 50.155 202.197 49.091 202.839 48.1057L201.163 47.0143C200.311 48.3223 199.881 49.765 199.881 51.32H201.881ZM202.844 48.0969C203.489 47.0838 204.392 46.2662 205.582 45.6472L204.659 43.8728C203.183 44.6405 202.006 45.6896 201.157 47.0231L202.844 48.0969ZM205.582 45.6472C206.759 45.0352 208.091 44.72 209.601 44.72V42.72C207.803 42.72 206.149 43.0981 204.659 43.8728L205.582 45.6472ZM209.601 44.72C211.13 44.72 212.411 45.0034 213.473 45.5344L214.368 43.7456C212.977 43.05 211.378 42.72 209.601 42.72V44.72ZM213.473 45.5344C214.599 46.0975 215.452 46.7625 216.067 47.5132L217.615 46.2468C216.789 45.2375 215.695 44.4092 214.368 43.7456L213.473 45.5344ZM216.078 47.527C216.766 48.3373 217.212 49.0973 217.455 49.8051L219.346 49.1549C219.003 48.156 218.409 47.1827 217.603 46.233L216.078 47.527ZM218.009 48.5597L214.809 49.9197L215.592 51.7603L218.792 50.4003L218.009 48.5597ZM216.166 50.5791C215.835 49.3533 215.083 48.2937 214.001 47.3918L212.72 48.9282C213.558 49.6263 214.033 50.3533 214.235 51.1009L216.166 50.5791ZM214.011 47.4007C212.854 46.4085 211.362 45.96 209.641 45.96V47.96C211.012 47.96 212.001 48.3115 212.71 48.9193L214.011 47.4007ZM209.641 45.96C207.973 45.96 206.494 46.4351 205.258 47.4172L206.503 48.9828C207.347 48.3116 208.375 47.96 209.641 47.96V45.96ZM205.258 47.4172C203.996 48.4204 203.321 49.7413 203.321 51.32H205.321C205.321 50.392 205.685 49.6329 206.503 48.9828L205.258 47.4172ZM203.321 51.32C203.321 52.7452 203.899 53.9474 205.007 54.854L206.274 53.306C205.622 52.7726 205.321 52.1348 205.321 51.32H203.321ZM205.022 54.8655C206.03 55.6601 207.485 56.3574 209.316 56.9858L209.965 55.0942C208.222 54.4959 207.011 53.8866 206.259 53.2945L205.022 54.8655ZM209.318 56.9866L211.198 57.6266L211.843 55.7333L209.963 55.0933L209.318 56.9866ZM211.18 57.6201C213.517 58.4677 215.272 59.5098 216.501 60.7141L217.901 59.2859C216.409 57.8235 214.378 56.6523 211.861 55.7399L211.18 57.6201ZM216.508 60.7211C217.633 61.8018 218.241 63.3063 218.241 65.36H220.241C220.241 62.8803 219.489 60.8115 217.893 59.2789L216.508 60.7211ZM218.241 65.36C218.241 67.018 217.812 68.341 217.007 69.3919L218.594 70.6081C219.709 69.1524 220.241 67.382 220.241 65.36H218.241ZM216.999 69.4027C216.174 70.5105 215.133 71.3164 213.863 71.8339L214.618 73.6861C216.228 73.0302 217.561 71.9961 218.603 70.5973L216.999 69.4027ZM213.863 71.8339C212.54 72.3729 211.188 72.64 209.801 72.64V74.64C211.453 74.64 213.061 74.3204 214.618 73.6861L213.863 71.8339ZM247.712 47.6H248.712V46.6H247.712V47.6ZM239.672 47.6H238.672V48.6H239.672V47.6ZM239.672 44.36V43.36H238.672V44.36H239.672ZM259.112 44.36H260.112V43.36H259.112V44.36ZM259.112 47.6V48.6H260.112V47.6H259.112ZM251.112 47.6V46.6H250.112V47.6H251.112ZM251.112 73V74H252.112V73H251.112ZM247.712 73H246.712V74H247.712V73ZM247.712 46.6H239.672V48.6H247.712V46.6ZM240.672 47.6V44.36H238.672V47.6H240.672ZM239.672 45.36H259.112V43.36H239.672V45.36ZM258.112 44.36V47.6H260.112V44.36H258.112ZM259.112 46.6H251.112V48.6H259.112V46.6ZM250.112 47.6V73H252.112V47.6H250.112ZM251.112 72H247.712V74H251.112V72ZM248.712 73V47.6H246.712V73H248.712ZM287.017 44.36V43.36H286.326L286.082 44.006L287.017 44.36ZM290.857 44.36L291.792 44.0049L291.547 43.36H290.857V44.36ZM301.737 73V74H303.187L302.672 72.6449L301.737 73ZM298.017 73L297.078 73.3433L297.318 74H298.017V73ZM295.137 65.12L296.076 64.7767L295.836 64.12H295.137V65.12ZM282.777 65.12V64.12H282.078L281.838 64.7767L282.777 65.12ZM279.897 73V74H280.596L280.836 73.3433L279.897 73ZM276.177 73L275.242 72.646L274.729 74H276.177V73ZM293.977 61.92V62.92H295.411L294.916 61.5745L293.977 61.92ZM290.177 51.6L291.116 51.2545L291.113 51.2475L290.177 51.6ZM289.017 48.52L289.953 48.1675L289.709 47.52H289.017V48.52ZM288.857 48.52V47.52H288.157L287.917 48.1783L288.857 48.52ZM287.737 51.6L288.676 51.9455L288.677 51.9417L287.737 51.6ZM283.937 61.92L282.999 61.5745L282.503 62.92H283.937V61.92ZM287.017 45.36H290.857V43.36H287.017V45.36ZM289.922 44.7151L300.802 73.3551L302.672 72.6449L291.792 44.0049L289.922 44.7151ZM301.737 72H298.017V74H301.737V72ZM298.956 72.6567L296.076 64.7767L294.198 65.4633L297.078 73.3433L298.956 72.6567ZM295.137 64.12H282.777V66.12H295.137V64.12ZM281.838 64.7767L278.958 72.6567L280.836 73.3433L283.716 65.4633L281.838 64.7767ZM279.897 72H276.177V74H279.897V72ZM277.112 73.354L287.952 44.714L286.082 44.006L275.242 72.646L277.112 73.354ZM294.916 61.5745L291.116 51.2545L289.239 51.9455L293.039 62.2655L294.916 61.5745ZM291.113 51.2475L289.953 48.1675L288.081 48.8725L289.241 51.9525L291.113 51.2475ZM289.017 47.52H288.857V49.52H289.017V47.52ZM287.917 48.1783L286.797 51.2583L288.677 51.9417L289.797 48.8617L287.917 48.1783ZM286.799 51.2545L282.999 61.5745L284.876 62.2655L288.676 51.9455L286.799 51.2545ZM283.937 62.92H293.977V60.92H283.937V62.92ZM323.535 44.36V43.36H322.535V44.36H323.535ZM326.895 44.36H327.895V43.36H326.895V44.36ZM326.895 69.76H325.895V70.76H326.895V69.76ZM339.455 69.76H340.455V68.76H339.455V69.76ZM339.455 73V74H340.455V73H339.455ZM323.535 73H322.535V74H323.535V73ZM323.535 45.36H326.895V43.36H323.535V45.36ZM325.895 44.36V69.76H327.895V44.36H325.895ZM326.895 70.76H339.455V68.76H326.895V70.76ZM338.455 69.76V73H340.455V69.76H338.455ZM339.455 72H323.535V74H339.455V72ZM324.535 73V44.36H322.535V73H324.535Z" fill="black" style="fill:black;fill-opacity:1;" mask="url(#path-1-outside-1_6_2)"/>
<path d="M36.3692 94.4121C44.1494 96.7907 51.8166 97.1307 59.3709 95.4319C66.9252 93.7332 73.5187 90.2274 79.1513 84.9145C84.7839 79.6017 88.7895 73.0551 91.1681 65.275C93.5468 57.4948 93.8867 49.8276 92.188 42.2733C90.4893 34.719 86.9835 28.1255 81.6706 22.4929C76.3577 16.8603 69.8112 12.8547 62.031 10.476C55.9715 8.62345 50.1299 8.06454 44.5064 8.7993C38.808 9.51119 33.3994 11.416 28.2804 14.5137L34.6159 25.8987C38.3902 23.4533 42.2007 21.9598 46.0474 21.418C49.917 20.8014 54.0212 21.1564 58.3602 22.4829C63.7464 24.1297 68.3065 26.8736 72.0403 30.7146C75.6993 34.5327 78.1403 39.1237 79.3635 44.4875C80.6095 49.7766 80.3177 55.4135 78.488 61.3982C76.6582 67.383 73.7366 72.2568 69.7232 76.0196C65.7325 79.7077 61.153 82.1114 55.9845 83.2307C50.7412 84.3271 45.4264 84.0519 40.0401 82.4052C31.063 79.6606 24.576 73.5872 20.5792 64.1851L8.81389 70.1589C11.3088 75.9116 14.898 80.8945 19.5814 85.1076C24.2649 89.3208 29.8608 92.4222 36.3692 94.4121Z" fill="black" style="fill:black;fill-opacity:1;"/>
<mask id="path-4-outside-2_6_2" maskUnits="userSpaceOnUse" x="18.9133" y="24.4824" width="57.141" height="58.9711" fill="black">
<rect fill="white" x="18.9133" y="24.4824" width="57.141" height="58.9711"/>
<path d="M60.0024 71.4556C56.61 73.4142 53.0498 74.4041 49.3218 74.4254C45.5938 74.4466 42.1208 73.5161 38.9029 71.6336C35.6849 69.7512 33.0967 67.1138 31.1381 63.7214C29.1795 60.3291 28.1896 56.7689 28.1683 53.0409C28.1471 49.3128 29.0776 45.8399 30.9601 42.6219C32.8425 39.404 35.4799 36.8158 38.8723 34.8572C41.5144 33.3317 44.1944 32.4368 46.9122 32.1725C49.6626 31.8892 52.4064 32.1971 55.1434 33.0959L53.4043 39.1233C51.3687 38.3848 49.4193 38.0968 47.556 38.2593C45.6738 38.3892 43.7868 39.0002 41.8949 40.0925C39.5463 41.4485 37.7042 43.2296 36.3685 45.436C35.0655 47.6235 34.4175 50.0418 34.4247 52.6906C34.413 55.3069 35.1604 57.9198 36.667 60.5293C38.1736 63.1388 40.0721 65.1089 42.3626 66.4395C44.6342 67.7375 47.043 68.3692 49.589 68.3345C52.1676 68.2809 54.6312 67.5762 56.9797 66.2203C60.894 63.9604 63.2795 60.4085 64.1362 55.5647L70.3028 57.0929C69.7554 60.062 68.6113 62.7884 66.8704 65.2722C65.1296 67.756 62.8402 69.8172 60.0024 71.4556Z"/>
</mask>
<path d="M60.0024 71.4556C56.61 73.4142 53.0498 74.4041 49.3218 74.4254C45.5938 74.4466 42.1208 73.5161 38.9029 71.6336C35.6849 69.7512 33.0967 67.1138 31.1381 63.7214C29.1795 60.3291 28.1896 56.7689 28.1683 53.0409C28.1471 49.3128 29.0776 45.8399 30.9601 42.6219C32.8425 39.404 35.4799 36.8158 38.8723 34.8572C41.5144 33.3317 44.1944 32.4368 46.9122 32.1725C49.6626 31.8892 52.4064 32.1971 55.1434 33.0959L53.4043 39.1233C51.3687 38.3848 49.4193 38.0968 47.556 38.2593C45.6738 38.3892 43.7868 39.0002 41.8949 40.0925C39.5463 41.4485 37.7042 43.2296 36.3685 45.436C35.0655 47.6235 34.4175 50.0418 34.4247 52.6906C34.413 55.3069 35.1604 57.9198 36.667 60.5293C38.1736 63.1388 40.0721 65.1089 42.3626 66.4395C44.6342 67.7375 47.043 68.3692 49.589 68.3345C52.1676 68.2809 54.6312 67.5762 56.9797 66.2203C60.894 63.9604 63.2795 60.4085 64.1362 55.5647L70.3028 57.0929C69.7554 60.062 68.6113 62.7884 66.8704 65.2722C65.1296 67.756 62.8402 69.8172 60.0024 71.4556Z" fill="black" style="fill:black;fill-opacity:1;"/>
<path d="M49.3218 74.4254L49.3262 75.2059L49.3262 75.2059L49.3218 74.4254ZM38.9029 71.6336L39.297 70.9599L39.297 70.9599L38.9029 71.6336ZM28.1683 53.0409L27.3877 53.0453L27.3877 53.0453L28.1683 53.0409ZM30.9601 42.6219L30.2863 42.2278L30.2863 42.2278L30.9601 42.6219ZM46.9122 32.1725L46.9878 32.9494L46.9921 32.9489L46.9122 32.1725ZM55.1434 33.0959L55.8934 33.3123L56.102 32.5891L55.3869 32.3542L55.1434 33.0959ZM53.4043 39.1233L53.1381 39.8571L53.9228 40.1417L54.1543 39.3397L53.4043 39.1233ZM47.556 38.2593L47.6097 39.0382L47.6238 39.037L47.556 38.2593ZM36.3685 45.436L35.7008 45.0317L35.6979 45.0365L36.3685 45.436ZM34.4247 52.6906L35.2053 52.6941L35.2053 52.6885L34.4247 52.6906ZM42.3626 66.4395L41.9705 67.1145L41.9753 67.1173L42.3626 66.4395ZM49.589 68.3345L49.5996 69.115L49.6052 69.1149L49.589 68.3345ZM64.1362 55.5647L64.324 54.807L63.5131 54.606L63.3676 55.4287L64.1362 55.5647ZM70.3028 57.0929L71.0705 57.2345L71.2037 56.512L70.4906 56.3353L70.3028 57.0929ZM66.8704 65.2722L66.2312 64.8242L66.2312 64.8242L66.8704 65.2722ZM59.6121 70.7796C56.3309 72.674 52.9029 73.6243 49.3173 73.6448L49.3262 75.2059C53.1967 75.1839 56.8891 74.1544 60.3927 72.1316L59.6121 70.7796ZM49.3173 73.6448C45.7293 73.6653 42.3941 72.7716 39.297 70.9599L38.5087 72.3074C41.8475 74.2605 45.4582 75.228 49.3262 75.2059L49.3173 73.6448ZM39.297 70.9599C36.2021 69.1494 33.7085 66.6123 31.8141 63.3311L30.4621 64.1117C32.4849 67.6153 35.1678 70.353 38.5087 72.3074L39.297 70.9599ZM31.8141 63.3311C29.9197 60.05 28.9694 56.622 28.9489 53.0364L27.3877 53.0453C27.4098 56.9158 28.4393 60.6082 30.4621 64.1117L31.8141 63.3311ZM28.9489 53.0364C28.9284 49.4484 29.8221 46.1131 31.6338 43.0161L30.2863 42.2278C28.3331 45.5666 27.3657 49.1773 27.3877 53.0453L28.9489 53.0364ZM31.6338 43.0161C33.4443 39.9211 35.9814 37.4276 39.2626 35.5332L38.482 34.1812C34.9784 36.2039 32.2407 38.8869 30.2863 42.2278L31.6338 43.0161ZM39.2626 35.5332C41.8196 34.0569 44.3932 33.2018 46.9878 32.9494L46.8366 31.3955C43.9955 31.6719 41.2092 32.6066 38.482 34.1812L39.2626 35.5332ZM46.9921 32.9489C49.6289 32.6774 52.2625 32.9714 54.8998 33.8375L55.3869 32.3542C52.5502 31.4227 49.6963 31.1011 46.8322 31.396L46.9921 32.9489ZM54.3934 32.8795L52.6543 38.9069L54.1543 39.3397L55.8934 33.3123L54.3934 32.8795ZM53.6705 38.3895C51.5449 37.6184 49.4812 37.3079 47.4882 37.4817L47.6238 39.037C49.3574 38.8858 51.1926 39.1513 53.1381 39.8571L53.6705 38.3895ZM47.5022 37.4806C45.4842 37.6198 43.4832 38.2742 41.5046 39.4165L42.2852 40.7685C44.0904 39.7263 45.8635 39.1585 47.6097 39.0381L47.5022 37.4806ZM41.5046 39.4165C39.0482 40.8347 37.1081 42.707 35.7008 45.0318L37.0363 45.8402C38.3003 43.7522 40.0445 42.0622 42.2852 40.7685L41.5046 39.4165ZM35.6979 45.0365C34.3196 47.3505 33.6366 49.9085 33.6441 52.6927L35.2053 52.6885C35.1985 50.175 35.8115 47.8966 37.0392 45.8355L35.6979 45.0365ZM33.6441 52.6872C33.6317 55.4615 34.4259 58.2088 35.991 60.9196L37.343 60.139C35.8949 57.6308 35.1942 55.1524 35.2052 52.6941L33.6441 52.6872ZM35.991 60.9196C37.5562 63.6307 39.5467 65.7064 41.9705 67.1145L42.7547 65.7646C40.5976 64.5114 38.791 62.647 37.343 60.139L35.991 60.9196ZM41.9753 67.1173C44.3645 68.4824 46.9102 69.1516 49.5996 69.115L49.5783 67.5539C47.1758 67.5867 44.9039 66.9926 42.7498 65.7618L41.9753 67.1173ZM49.6052 69.1149C52.3221 69.0585 54.9136 68.3145 57.37 66.8963L56.5894 65.5442C54.3487 66.8379 52.0131 67.5034 49.5728 67.554L49.6052 69.1149ZM57.37 66.8963C61.5032 64.51 64.012 60.7488 64.9049 55.7006L63.3676 55.4287C62.547 60.0682 60.2848 63.4107 56.5894 65.5442L57.37 66.8963ZM63.9485 56.3223L70.1151 57.8506L70.4906 56.3353L64.324 54.807L63.9485 56.3223ZM69.5352 56.9514C69.0082 59.8097 67.9081 62.4317 66.2312 64.8242L67.5097 65.7202C69.3145 63.1451 70.5027 60.3142 71.0705 57.2345L69.5352 56.9514ZM66.2312 64.8242C64.5608 67.2075 62.3593 69.1934 59.6121 70.7796L60.3927 72.1316C63.3211 70.4409 65.6983 68.3046 67.5097 65.7202L66.2312 64.8242Z" fill="black" style="fill:black;fill-opacity:1;" mask="url(#path-4-outside-2_6_2)"/>
<path d="M67.9241 40.8853L57.3285 47.5062L56.9975 47.713L57.2043 48.044L58.3743 49.9163L58.5811 50.2473L58.9121 50.0405L69.5077 43.4196L67.8359 50.661L67.7481 51.0412L68.1284 51.129L70.2797 51.6257L70.6599 51.7135L70.7477 51.3332L73.4793 39.5013L73.5671 39.121L73.1868 39.0333L61.355 36.3017L60.9747 36.2139L60.8869 36.5941L60.3903 38.7454L60.3025 39.1257L60.6828 39.2135L67.9241 40.8853Z" fill="#15CC96" stroke="#15CC96" style="fill:#15CC96;fill:color(display-p3 0.0824 0.8000 0.5882);fill-opacity:1;stroke:#15CC96;stroke:color(display-p3 0.0824 0.8000 0.5882);stroke-opacity:1;" stroke-width="0.780587"/>
</svg>
