<svg width="109" height="108" viewBox="0 0 109 108" fill="none" xmlns="http://www.w3.org/2000/svg">
<path d="M36.3692 94.4121C44.1494 96.7907 51.8166 97.1307 59.3709 95.4319C66.9252 93.7332 73.5187 90.2274 79.1513 84.9145C84.7839 79.6017 88.7895 73.0551 91.1681 65.275C93.5468 57.4948 93.8867 49.8276 92.188 42.2733C90.4893 34.719 86.9835 28.1255 81.6706 22.4929C76.3577 16.8603 69.8112 12.8547 62.031 10.476C55.9715 8.62345 50.1299 8.06454 44.5064 8.7993C38.808 9.51119 33.3994 11.416 28.2804 14.5137L34.6159 25.8987C38.3902 23.4533 42.2007 21.9598 46.0474 21.418C49.917 20.8014 54.0212 21.1564 58.3602 22.4829C63.7464 24.1297 68.3065 26.8736 72.0403 30.7146C75.6993 34.5327 78.1403 39.1237 79.3635 44.4875C80.6095 49.7766 80.3177 55.4135 78.488 61.3982C76.6582 67.383 73.7366 72.2568 69.7232 76.0196C65.7325 79.7077 61.153 82.1114 55.9845 83.2307C50.7412 84.3271 45.4264 84.0519 40.0401 82.4052C31.063 79.6606 24.576 73.5872 20.5792 64.1851L8.81389 70.1589C11.3088 75.9116 14.898 80.8945 19.5814 85.1076C24.2649 89.3208 29.8608 92.4222 36.3692 94.4121Z" fill="black" style="fill:black;fill-opacity:1;"/>
<mask id="path-2-outside-1_12_20" maskUnits="userSpaceOnUse" x="18.9134" y="24.4824" width="57.141" height="58.9711" fill="black">
<rect fill="white" x="18.9134" y="24.4824" width="57.141" height="58.9711"/>
<path d="M60.0025 71.4556C56.6101 73.4142 53.0499 74.4041 49.3219 74.4254C45.5939 74.4466 42.1209 73.5161 38.903 71.6336C35.6851 69.7512 33.0968 67.1138 31.1382 63.7214C29.1796 60.3291 28.1897 56.7689 28.1684 53.0409C28.1472 49.3128 29.0778 45.8399 30.9602 42.6219C32.8426 39.404 35.48 36.8158 38.8724 34.8572C41.5145 33.3317 44.1945 32.4368 46.9123 32.1725C49.6628 31.8892 52.4065 32.1971 55.1435 33.0959L53.4044 39.1233C51.3689 38.3848 49.4194 38.0968 47.5561 38.2593C45.6739 38.3892 43.7869 39.0002 41.895 40.0925C39.5464 41.4485 37.7043 43.2296 36.3687 45.436C35.0656 47.6235 34.4177 50.0418 34.4248 52.6906C34.4131 55.3069 35.1605 57.9198 36.6671 60.5293C38.1737 63.1388 40.0723 65.1089 42.3627 66.4395C44.6343 67.7375 47.0431 68.3692 49.5891 68.3345C52.1677 68.2809 54.6313 67.5762 56.9799 66.2203C60.8941 63.9604 63.2796 60.4085 64.1364 55.5647L70.303 57.0929C69.7556 60.062 68.6114 62.7884 66.8706 65.2722C65.1297 67.756 62.8403 69.8172 60.0025 71.4556Z"/>
</mask>
<path d="M60.0025 71.4556C56.6101 73.4142 53.0499 74.4041 49.3219 74.4254C45.5939 74.4466 42.1209 73.5161 38.903 71.6336C35.6851 69.7512 33.0968 67.1138 31.1382 63.7214C29.1796 60.3291 28.1897 56.7689 28.1684 53.0409C28.1472 49.3128 29.0778 45.8399 30.9602 42.6219C32.8426 39.404 35.48 36.8158 38.8724 34.8572C41.5145 33.3317 44.1945 32.4368 46.9123 32.1725C49.6628 31.8892 52.4065 32.1971 55.1435 33.0959L53.4044 39.1233C51.3689 38.3848 49.4194 38.0968 47.5561 38.2593C45.6739 38.3892 43.7869 39.0002 41.895 40.0925C39.5464 41.4485 37.7043 43.2296 36.3687 45.436C35.0656 47.6235 34.4177 50.0418 34.4248 52.6906C34.4131 55.3069 35.1605 57.9198 36.6671 60.5293C38.1737 63.1388 40.0723 65.1089 42.3627 66.4395C44.6343 67.7375 47.0431 68.3692 49.5891 68.3345C52.1677 68.2809 54.6313 67.5762 56.9799 66.2203C60.8941 63.9604 63.2796 60.4085 64.1364 55.5647L70.303 57.0929C69.7556 60.062 68.6114 62.7884 66.8706 65.2722C65.1297 67.756 62.8403 69.8172 60.0025 71.4556Z" fill="black" style="fill:black;fill-opacity:1;"/>
<path d="M49.3219 74.4254L49.3264 75.2059L49.3264 75.2059L49.3219 74.4254ZM38.903 71.6336L39.2971 70.9599L39.2971 70.9599L38.903 71.6336ZM28.1684 53.0409L27.3879 53.0453L27.3879 53.0453L28.1684 53.0409ZM30.9602 42.6219L30.2864 42.2278L30.2864 42.2278L30.9602 42.6219ZM46.9123 32.1725L46.9879 32.9494L46.9923 32.9489L46.9123 32.1725ZM55.1435 33.0959L55.8935 33.3123L56.1022 32.5891L55.387 32.3542L55.1435 33.0959ZM53.4044 39.1233L53.1382 39.8571L53.923 40.1417L54.1544 39.3397L53.4044 39.1233ZM47.5561 38.2593L47.6098 39.0382L47.6239 39.037L47.5561 38.2593ZM36.3687 45.436L35.7009 45.0317L35.698 45.0365L36.3687 45.436ZM34.4248 52.6906L35.2054 52.6941L35.2054 52.6885L34.4248 52.6906ZM42.3627 66.4395L41.9706 67.1145L41.9754 67.1173L42.3627 66.4395ZM49.5891 68.3345L49.5997 69.115L49.6053 69.1149L49.5891 68.3345ZM64.1364 55.5647L64.3241 54.807L63.5132 54.606L63.3677 55.4287L64.1364 55.5647ZM70.303 57.0929L71.0706 57.2345L71.2038 56.512L70.4907 56.3353L70.303 57.0929ZM66.8706 65.2722L66.2313 64.8242L66.2313 64.8242L66.8706 65.2722ZM59.6122 70.7796C56.331 72.674 52.903 73.6243 49.3174 73.6448L49.3264 75.2059C53.1969 75.1839 56.8892 74.1544 60.3928 72.1316L59.6122 70.7796ZM49.3174 73.6448C45.7295 73.6653 42.3942 72.7716 39.2971 70.9599L38.5088 72.3074C41.8476 74.2605 45.4583 75.228 49.3264 75.2059L49.3174 73.6448ZM39.2971 70.9599C36.2022 69.1494 33.7086 66.6123 31.8142 63.3311L30.4622 64.1117C32.485 67.6153 35.1679 70.353 38.5088 72.3074L39.2971 70.9599ZM31.8142 63.3311C29.9198 60.05 28.9695 56.622 28.949 53.0364L27.3879 53.0453C27.41 56.9158 28.4395 60.6082 30.4622 64.1117L31.8142 63.3311ZM28.949 53.0364C28.9285 49.4484 29.8222 46.1131 31.634 43.0161L30.2864 42.2278C28.3333 45.5666 27.3658 49.1773 27.3879 53.0453L28.949 53.0364ZM31.634 43.0161C33.4444 39.9211 35.9815 37.4276 39.2627 35.5332L38.4821 34.1812C34.9785 36.2039 32.2408 38.8869 30.2864 42.2278L31.634 43.0161ZM39.2627 35.5332C41.8197 34.0569 44.3933 33.2018 46.9879 32.9494L46.8367 31.3955C43.9956 31.6719 41.2093 32.6066 38.4821 34.1812L39.2627 35.5332ZM46.9923 32.9489C49.629 32.6774 52.2627 32.9714 54.9 33.8375L55.387 32.3542C52.5503 31.4227 49.6965 31.1011 46.8324 31.396L46.9923 32.9489ZM54.3935 32.8795L52.6544 38.9069L54.1544 39.3397L55.8935 33.3123L54.3935 32.8795ZM53.6706 38.3895C51.545 37.6184 49.4813 37.3079 47.4883 37.4817L47.6239 39.037C49.3575 38.8858 51.1927 39.1513 53.1382 39.8571L53.6706 38.3895ZM47.5024 37.4806C45.4843 37.6198 43.4833 38.2742 41.5047 39.4165L42.2853 40.7685C44.0905 39.7263 45.8636 39.1585 47.6098 39.0381L47.5024 37.4806ZM41.5047 39.4165C39.0483 40.8347 37.1082 42.707 35.7009 45.0318L37.0364 45.8402C38.3004 43.7522 40.0446 42.0622 42.2853 40.7685L41.5047 39.4165ZM35.698 45.0365C34.3197 47.3505 33.6367 49.9085 33.6442 52.6927L35.2054 52.6885C35.1986 50.175 35.8116 47.8966 37.0393 45.8355L35.698 45.0365ZM33.6442 52.6872C33.6318 55.4615 34.4261 58.2088 35.9911 60.9196L37.3431 60.139C35.895 57.6308 35.1944 55.1524 35.2054 52.6941L33.6442 52.6872ZM35.9911 60.9196C37.5564 63.6307 39.5468 65.7064 41.9706 67.1145L42.7548 65.7646C40.5977 64.5114 38.7911 62.647 37.3431 60.139L35.9911 60.9196ZM41.9754 67.1173C44.3646 68.4824 46.9104 69.1516 49.5997 69.115L49.5785 67.5539C47.1759 67.5867 44.904 66.9926 42.75 65.7618L41.9754 67.1173ZM49.6053 69.1149C52.3223 69.0585 54.9138 68.3145 57.3702 66.8963L56.5896 65.5442C54.3488 66.8379 52.0132 67.5034 49.5729 67.554L49.6053 69.1149ZM57.3702 66.8963C61.5033 64.51 64.0121 60.7488 64.905 55.7006L63.3677 55.4287C62.5471 60.0682 60.285 63.4107 56.5896 65.5442L57.3702 66.8963ZM63.9486 56.3223L70.1152 57.8506L70.4907 56.3353L64.3241 54.807L63.9486 56.3223ZM69.5353 56.9514C69.0083 59.8097 67.9082 62.4317 66.2313 64.8242L67.5098 65.7202C69.3147 63.1451 70.5028 60.3142 71.0706 57.2345L69.5353 56.9514ZM66.2313 64.8242C64.561 67.2075 62.3595 69.1934 59.6122 70.7796L60.3928 72.1316C63.3212 70.4409 65.6984 68.3046 67.5098 65.7202L66.2313 64.8242Z" fill="black" style="fill:black;fill-opacity:1;" mask="url(#path-2-outside-1_12_20)"/>
<path d="M67.9242 40.8853L57.3286 47.5062L56.9976 47.713L57.2044 48.044L58.3744 49.9163L58.5812 50.2473L58.9122 50.0405L69.5078 43.4196L67.836 50.661L67.7482 51.0412L68.1285 51.129L70.2798 51.6257L70.6601 51.7135L70.7479 51.3332L73.4795 39.5013L73.5673 39.121L73.187 39.0333L61.3551 36.3017L60.9748 36.2139L60.887 36.5941L60.3904 38.7454L60.3026 39.1257L60.6829 39.2135L67.9242 40.8853Z" fill="#15CC96" stroke="#15CC96" style="fill:#15CC96;fill:color(display-p3 0.0824 0.8000 0.5882);fill-opacity:1;stroke:#15CC96;stroke:color(display-p3 0.0824 0.8000 0.5882);stroke-opacity:1;" stroke-width="0.780587"/>
</svg>
