<svg width="212" height="76" viewBox="0 0 212 76" fill="none" xmlns="http://www.w3.org/2000/svg">
<path d="M204.964 19.3284L193.646 30.6465L193.293 31L193.646 31.3536L195.646 33.3536L196 33.7071L196.354 33.3536L207.672 22.0355V31.5564V32.0564H208.172H211H211.5V31.5564V16V15.5H211H195.444H194.944V16V18.8284V19.3284H195.444H204.964Z" fill="#15CC96" stroke="#15CC96"/>
<path d="M18.5064 58.96C15.4264 58.96 12.6664 58.28 10.2264 56.92C7.7864 55.52 5.8664 53.58 4.4664 51.1C3.1064 48.62 2.4264 45.82 2.4264 42.7C2.4264 39.58 3.1064 36.8 4.4664 34.36C5.8664 31.88 7.7864 29.94 10.2264 28.54C12.6664 27.14 15.4264 26.44 18.5064 26.44C21.9064 26.44 24.8264 27.18 27.2664 28.66C29.7064 30.1 31.4664 32.16 32.5464 34.84L25.3464 37.84C24.0664 35.12 21.7864 33.76 18.5064 33.76C16.1064 33.76 14.1264 34.58 12.5664 36.22C11.0464 37.86 10.2864 40.02 10.2864 42.7C10.2864 45.42 11.0464 47.6 12.5664 49.24C14.1264 50.88 16.1064 51.7 18.5064 51.7C21.8264 51.7 24.2264 50.26 25.7064 47.38L32.8464 50.5C31.5264 53.18 29.6464 55.26 27.2064 56.74C24.7664 58.22 21.8664 58.96 18.5064 58.96ZM35.808 27.4H43.188V31.48H43.668C44.428 30.04 45.608 28.86 47.208 27.94C48.808 26.98 50.568 26.5 52.488 26.5C53.888 26.5 55.168 26.72 56.328 27.16V35.02C55.248 34.62 54.328 34.34 53.568 34.18C52.848 33.98 52.068 33.88 51.228 33.88C48.908 33.88 47.068 34.72 45.708 36.4C44.348 38.08 43.668 40.2 43.668 42.76V58H35.808V27.4ZM69.9011 56.56L57.0011 27.4H65.9411L73.8611 46.42H74.3411L81.9611 27.4H90.7211L71.8211 70.96H63.3611L69.9011 56.56ZM103.703 58.96C99.9827 58.96 96.9627 58.2 94.6427 56.68C92.3627 55.16 90.7627 53.18 89.8427 50.74L96.8627 47.68C97.5027 49.12 98.4027 50.22 99.5627 50.98C100.763 51.7 102.143 52.06 103.703 52.06C105.143 52.06 106.343 51.84 107.303 51.4C108.263 50.92 108.743 50.16 108.743 49.12C108.743 48.12 108.303 47.38 107.423 46.9C106.543 46.38 105.223 45.92 103.463 45.52L99.8627 44.74C97.3827 44.14 95.3227 43.06 93.6827 41.5C92.0427 39.9 91.2227 37.92 91.2227 35.56C91.2227 33.8 91.7427 32.22 92.7827 30.82C93.8627 29.42 95.3027 28.34 97.1027 27.58C98.9427 26.82 100.963 26.44 103.163 26.44C109.483 26.44 113.703 28.66 115.823 33.1L109.103 36.04C107.903 33.88 105.983 32.8 103.343 32.8C101.983 32.8 100.903 33.06 100.103 33.58C99.3027 34.06 98.9027 34.68 98.9027 35.44C98.9027 36.88 100.263 37.96 102.983 38.68L107.483 39.76C110.523 40.52 112.803 41.68 114.323 43.24C115.883 44.8 116.663 46.72 116.663 49C116.663 50.96 116.083 52.7 114.923 54.22C113.803 55.7 112.243 56.86 110.243 57.7C108.283 58.54 106.103 58.96 103.703 58.96ZM132.983 58.48C131.463 58.48 130.063 58.26 128.783 57.82C127.503 57.34 126.463 56.7 125.663 55.9C123.783 54.1 122.843 51.54 122.843 48.22V34.12H117.503V27.4H122.843V18.76H130.703V27.4H138.203V34.12H130.703V46.78C130.703 48.34 131.043 49.46 131.723 50.14C132.283 50.78 133.243 51.1 134.603 51.1C135.363 51.1 135.983 51 136.463 50.8C136.983 50.6 137.643 50.26 138.443 49.78V57.46C136.723 58.14 134.903 58.48 132.983 58.48ZM151.115 58.96C147.875 58.96 145.215 58.02 143.135 56.14C141.055 54.22 140.015 51.72 140.015 48.64C140.015 46.6 140.555 44.8 141.635 43.24C142.715 41.68 144.195 40.48 146.075 39.64C147.955 38.8 150.035 38.38 152.315 38.38C155.475 38.38 158.175 38.84 160.415 39.76V38.44C160.415 36.76 159.775 35.4 158.495 34.36C157.255 33.32 155.575 32.8 153.455 32.8C152.015 32.8 150.615 33.14 149.255 33.82C147.935 34.46 146.835 35.32 145.955 36.4L140.915 32.44C142.395 30.52 144.255 29.04 146.495 28C148.735 26.96 151.175 26.44 153.815 26.44C158.495 26.44 162.055 27.52 164.495 29.68C166.935 31.84 168.155 35 168.155 39.16V58H160.415V54.88H159.935C159.015 56.08 157.795 57.06 156.275 57.82C154.795 58.58 153.075 58.96 151.115 58.96ZM152.975 52.84C155.255 52.84 157.055 52.12 158.375 50.68C159.735 49.2 160.415 47.48 160.415 45.52C158.375 44.56 156.235 44.08 153.995 44.08C149.915 44.08 147.875 45.6 147.875 48.64C147.875 49.88 148.315 50.9 149.195 51.7C150.075 52.46 151.335 52.84 152.975 52.84ZM172.988 15.04H180.848V58H172.988V15.04Z" fill="#040404"/>
</svg>
