<svg width="32" height="32" viewBox="0 0 32 32" fill="none" xmlns="http://www.w3.org/2000/svg">
<path d="M8.8 8H11.5326L23.6 24H20.8674L8.8 8Z" fill="#b2b2b2"/>
<path d="M16.0013 5.5143e-08C12.8366 -0.000262632 9.74288 0.937998 7.11144 2.69612C4.47999 4.45424 2.42902 6.95324 1.21793 9.87706C0.00684576 12.8009 -0.309964 16.0182 0.307572 19.1221C0.925109 22.226 2.44925 25.077 4.68724 27.3146C6.92522 29.5523 9.77652 31.0759 12.8805 31.6929C15.9845 32.31 19.2018 31.9926 22.1254 30.781C25.049 29.5695 27.5477 27.5181 29.3054 24.8864C31.063 22.2546 32.0008 19.1607 32 15.996C31.9989 11.7535 30.313 7.68503 27.3128 4.68535C24.3126 1.68567 20.2439 0.000352206 16.0013 5.5143e-08ZM20.011 25.2694L14.5638 17.9902L7.82928 25.2694H6.10214L13.7986 16.9552L6.14997 6.72523H12.0448L17.0575 13.4279L23.2607 6.73055H24.9878L17.8268 14.4682L25.9045 25.2694H20.011Z" fill="#b2b2b2"/>
</svg>
